<svg width="90" height="101" viewBox="0 0 90 101" fill="none" xmlns="http://www.w3.org/2000/svg">
<path d="M71.0809 80.9699L61.0704 50.1567L87.2753 31.1184H54.883L44.8715 0.30583L44.8683 0.297468H77.2655L87.2795 31.1149L87.2802 31.1142L87.2885 31.1097C93.1039 48.9877 87.1143 69.3222 71.0809 80.9696V80.9699ZM18.6593 80.9699L18.6513 80.9759L44.8631 100.019L71.0809 80.9706L44.8715 61.9267L18.6596 80.9699H18.6593ZM2.45895 31.1104C-3.663 49.9563 3.44327 69.9257 18.6544 80.9738L18.6569 80.964L28.669 50.1525L2.46975 31.1177H34.8544L44.8662 0.305482L44.8683 0.297119H12.4694L2.4586 31.1104H2.45895Z" fill="#EB5424"/>
</svg>
