<svg width="101" height="95" viewBox="0 0 101 95" fill="none" xmlns="http://www.w3.org/2000/svg">
<path d="M33.9948 0.642881H63.5856L32.8673 91.7112C32.7102 92.1763 32.4816 92.6141 32.1897 93.0088C31.8985 93.4039 31.5472 93.7501 31.1484 94.0364C30.7496 94.3227 30.3096 94.5452 29.8421 94.6952C29.3745 94.8452 28.887 94.9227 28.397 94.9227H5.36795C4.6204 94.9227 3.88285 94.7452 3.21781 94.4027C2.55206 94.0611 1.97737 93.5657 1.54145 92.9576C1.10524 92.3494 0.819873 91.6463 0.708892 90.9062C0.597635 90.1661 0.665139 89.4098 0.903905 88.701L29.5233 3.85184C29.6796 3.38681 29.9083 2.94928 30.2008 2.55425C30.4921 2.15923 30.8446 1.81296 31.2422 1.52669C31.6409 1.24042 32.081 1.01791 32.5485 0.867896C33.016 0.717886 33.5036 0.640381 33.9936 0.640381V0.641631L33.9948 0.642881Z" fill="url(#paint0_linear_33_2404)"/>
<path d="M88.5433 94.9227H61.9729C61.6766 94.9227 61.3803 94.8952 61.0878 94.839C60.7965 94.784 60.5103 94.7015 60.234 94.5927C59.9577 94.4839 59.6927 94.3489 59.4414 94.1914C59.1905 94.0328 58.9549 93.8512 58.7377 93.6489L28.5857 65.4896C28.2668 65.1917 28.0447 64.805 27.9481 64.3795C27.8517 63.9539 27.8856 63.5092 28.0455 63.1032C28.2054 62.6971 28.4838 62.3487 28.8445 62.1031C29.2057 61.8581 29.632 61.7268 30.0683 61.7268H76.9913L88.5408 94.924L88.5433 94.9227Z" fill="#0078D4"/>
<path d="M63.6918 0.642881L42.9779 61.7332L76.8226 61.7257L88.4321 94.9229H61.9616C61.6879 94.9204 61.4141 94.8954 61.1441 94.8466C60.8741 94.7979 60.6091 94.7266 60.3515 94.6316C59.8352 94.4434 59.3549 94.1682 58.9314 93.8178L38.5776 74.8215L32.8797 91.6252C32.7322 92.0452 32.5297 92.444 32.2772 92.8102C31.7711 93.5471 31.0788 94.1367 30.2708 94.5191C29.8685 94.7094 29.4427 94.8452 29.0045 94.9229H5.38168C4.62664 94.9254 3.88159 94.7454 3.21029 94.3978C2.5389 94.0506 1.96097 93.5468 1.52536 92.9291C1.08975 92.3114 0.809272 91.5979 0.707629 90.8488C0.606353 90.0995 0.686523 89.3368 0.941394 88.625L29.5145 3.9156C29.6633 3.44182 29.887 2.99554 30.1771 2.59301C30.4658 2.19048 30.8184 1.83546 31.2184 1.54294C31.6184 1.25042 32.0634 1.02291 32.5347 0.870396C33.006 0.717886 33.4998 0.640381 33.9961 0.642881H63.693H63.6918Z" fill="url(#paint1_linear_33_2404)"/>
<path d="M100.409 88.7013C100.648 89.4105 100.715 90.1662 100.605 90.9064C100.494 91.6463 100.209 92.3493 99.7741 92.9578C99.3381 93.5656 98.7636 94.0608 98.0982 94.4025C97.4328 94.7442 96.6956 94.9226 95.9476 94.9229H62.9679C63.7155 94.9229 64.453 94.7442 65.1193 94.4029C65.7844 94.0616 66.3594 93.5653 66.7957 92.9578C67.232 92.3503 67.517 91.6465 67.6282 90.9064C67.7395 90.1664 67.672 89.4101 67.4332 88.7013L38.8126 3.84941C38.4975 2.9147 37.8972 2.10235 37.0962 1.52675C36.6987 1.24048 36.2586 1.01922 35.7924 0.869209C35.3261 0.719199 34.8385 0.642944 34.3498 0.642944H67.3282C67.8182 0.642944 68.3045 0.719199 68.7721 0.869209C69.2383 1.01922 69.6784 1.24173 70.0771 1.52675C70.4747 1.81302 70.8259 2.15929 71.1172 2.55307C71.4085 2.94685 71.636 3.38438 71.7935 3.84941L100.414 88.7013H100.409Z" fill="url(#paint2_linear_33_2404)"/>
<defs>
<linearGradient id="paint0_linear_33_2404" x1="44.7943" y1="7.63083" x2="14.0424" y2="98.4742" gradientUnits="userSpaceOnUse">
<stop stop-color="#114A8B"/>
<stop offset="1" stop-color="#0669BC"/>
</linearGradient>
<linearGradient id="paint1_linear_33_2404" x1="54.3824" y1="49.9586" x2="47.2694" y2="52.3713" gradientUnits="userSpaceOnUse">
<stop stop-opacity="0.3"/>
<stop offset="0.1" stop-opacity="0.2"/>
<stop offset="0.3" stop-opacity="0.1"/>
<stop offset="0.6" stop-opacity="0.1"/>
<stop offset="1" stop-opacity="0"/>
</linearGradient>
<linearGradient id="paint2_linear_33_2404" x1="50.4571" y1="4.98073" x2="84.2093" y2="94.8992" gradientUnits="userSpaceOnUse">
<stop stop-color="#3CCBF4"/>
<stop offset="1" stop-color="#2892DF"/>
</linearGradient>
</defs>
</svg>
