<?xml version="1.0" encoding="utf-8"?>
<!-- Generator: Adobe Illustrator 24.0.3, SVG Export Plug-In . SVG Version: 6.00 Build 0)  -->
<svg version="1.1" id="Layer_1" xmlns="http://www.w3.org/2000/svg" xmlns:xlink="http://www.w3.org/1999/xlink" x="0px" y="0px"
	 viewBox="0 0 101.5 101.3" style="enable-background:new 0 0 101.5 101.3;" xml:space="preserve">
<style type="text/css">
	.st0{fill-rule:evenodd;clip-rule:evenodd;fill:#FFFFFF;}
	.st1{clip-path:url(#SVGID_2_);}
	.st2{display:none;fill-rule:evenodd;clip-rule:evenodd;fill:#FFFFFF;}
	.st3{fill:#5077C5;}
	.st4{display:none;}
	.st5{display:inline;fill-rule:evenodd;clip-rule:evenodd;fill:#FFFFFF;}
	.st6{display:inline;}
	.st7{clip-path:url(#SVGID_8_);}
	.st8{display:inline;fill:#FFFFFF;}
	.st9{display:inline;fill:#5077C5;}
</style>
<g id="rounded_box">
	<path class="st0" d="M71.7,101.3H29.9C13.4,101.3,0,87.9,0,71.4V29.8C0,13.4,13.4,0,29.9,0h41.8c16.5,0,29.8,13.4,29.8,29.9v41.6
		C101.5,87.9,88.2,101.3,71.7,101.3z"/>
	<g>
		<g>
			<defs>
				<path id="SVGID_1_" d="M71.7,101.3H29.9C13.4,101.3,0,87.9,0,71.4V29.8C0,13.4,13.4,0,29.9,0h41.8c16.5,0,29.8,13.4,29.8,29.9
					v41.6C101.5,87.9,88.2,101.3,71.7,101.3z"/>
			</defs>
			<clipPath id="SVGID_2_">
				<use xlink:href="#SVGID_1_"  style="overflow:visible;"/>
			</clipPath>
			<g id="square_2_" class="st1">
				<rect x="3" class="st2" width="95.3" height="95.1"/>
				<polygon class="st3" points="75.8,0 49.6,52.4 37.2,27.6 28.3,27.6 49.6,67.9 84.7,0 				"/>
				<polygon class="st3" points="46.7,85.9 46.7,95 54.6,95 54.6,70.5 				"/>
			</g>
		</g>
		<g>
			<defs>
				<path id="SVGID_3_" d="M71.7,101.3H29.9C13.4,101.3,0,87.9,0,71.4V29.8C0,13.4,13.4,0,29.9,0h41.8c16.5,0,29.8,13.4,29.8,29.9
					v41.6C101.5,87.9,88.2,101.3,71.7,101.3z"/>
			</defs>
			<clipPath id="SVGID_4_">
				<use xlink:href="#SVGID_3_"  style="overflow:visible;"/>
			</clipPath>
		</g>
	</g>
</g>
<g id="circle" class="st4">
	<circle class="st5" cx="50.6" cy="50.6" r="50.6"/>
	<g class="st6">
		<g>
			<defs>
				<circle id="SVGID_5_" cx="50.6" cy="50.6" r="50.6"/>
			</defs>
			<clipPath id="SVGID_6_">
				<use xlink:href="#SVGID_5_"  style="overflow:visible;"/>
			</clipPath>
		</g>
		<g>
			<defs>
				<circle id="SVGID_7_" cx="50.6" cy="50.6" r="50.6"/>
			</defs>
			<clipPath id="SVGID_8_">
				<use xlink:href="#SVGID_7_"  style="overflow:visible;"/>
			</clipPath>
			<g id="square_1_" class="st7">
				<rect x="3" class="st2" width="95.3" height="95.1"/>
				<polygon class="st3" points="75.8,0 49.6,52.4 37.2,27.6 28.3,27.6 49.6,67.9 84.7,0 				"/>
				<polygon class="st3" points="46.7,85.9 46.7,95 54.6,95 54.6,70.5 				"/>
			</g>
		</g>
	</g>
</g>
<g id="square" class="st4">
	<rect x="3" class="st5" width="95.3" height="95.1"/>
	<rect x="0.1" y="-0.2" class="st8" width="101.4" height="101.4"/>
	<polygon class="st9" points="75.8,0 49.6,52.4 37.2,27.6 28.3,27.6 49.6,67.9 84.7,0 	"/>
	<polygon class="st9" points="46.7,85.9 46.7,95 54.6,95 54.6,70.5 	"/>
</g>
<g id="Layer_1_1_" class="st4">
</g>
</svg>
