<?xml version="1.0" encoding="utf-8"?>
<!-- Generator: Adobe Illustrator 24.0.3, SVG Export Plug-In . SVG Version: 6.00 Build 0)  -->
<svg version="1.1" id="Layer_1" xmlns="http://www.w3.org/2000/svg" xmlns:xlink="http://www.w3.org/1999/xlink" x="0px" y="0px"
	 viewBox="0 0 655.9 312.1" style="enable-background:new 0 0 655.9 312.1;" xml:space="preserve">
<style type="text/css">
	.st0{fill:#5077C5;}
</style>
<g>
	<path class="st0" d="M97.9,113.3l-1.4-0.7l1.3-1c1.9-1.5,3.4-3.3,4.4-5.4c1.1-2.3,1.7-4.9,1.7-7.7c0-3.2-0.8-6.2-2.2-8.8
		c-1.5-2.7-3.8-4.8-6.8-6.4c-3-1.6-6.8-2.5-11.1-2.5H64.7v69.6h22.6c4.5,0,8.4-0.9,11.6-2.8c3.2-1.8,5.7-4.3,7.3-7.3
		c1.7-3,2.5-6.3,2.5-9.7c0-4-1-7.6-3.1-10.6C103.8,117.1,101.1,114.8,97.9,113.3z M73.2,88.9h9.9c3.7,0,6.7,1,8.9,2.9
		c2.2,1.9,3.3,4.4,3.3,7.5c0,3.1-1.2,5.7-3.4,7.7c-2.3,2-5.2,3.1-8.9,3.1h-9.8C73.2,110.1,73.2,88.9,73.2,88.9z M96.3,138.6
		c-2.4,2.2-5.7,3.4-9.7,3.4H73.2v-23.6h13.4c4,0,7.3,1.1,9.7,3.3c2.4,2.2,3.6,5,3.6,8.4C99.9,133.5,98.7,136.4,96.3,138.6z"/>
	<polygon class="st0" points="129.9,118.8 152.5,118.8 152.5,110.8 129.9,110.8 129.9,88.8 159.1,88.8 159.1,80.7 121.5,80.7 
		121.5,150.3 159.1,150.3 159.1,142.1 129.9,142.1 	"/>
	<path class="st0" d="M284.8,97.6c-3-5.5-7.2-9.9-12.6-13.2c-5.4-3.3-11.7-4.9-18.6-4.9c-7,0-13.3,1.7-18.7,4.9
		c-5.4,3.3-9.7,7.7-12.6,13.2c-3,5.5-4.5,11.5-4.5,17.9c0,6.5,1.5,12.5,4.5,18c3,5.5,7.2,9.9,12.6,13.2s11.7,4.9,18.7,4.9
		c6.9,0,13.2-1.7,18.6-4.9c5.4-3.3,9.7-7.7,12.6-13.2c3-5.5,4.5-11.5,4.5-18C289.2,109.1,287.7,103.1,284.8,97.6z M277.3,129.2
		L277.3,129.2c-2.3,4.2-5.6,7.6-9.7,10.2c-4.1,2.5-8.9,3.8-14.1,3.8c-5.3,0-10-1.3-14.1-3.8c-4.1-2.5-7.3-6-9.6-10.2
		c-2.3-4.2-3.4-8.8-3.4-13.8s1.1-9.6,3.4-13.8c2.3-4.2,5.5-7.6,9.6-10.1c4.1-2.5,8.9-3.8,14.1-3.8c5.2,0,9.9,1.3,14.1,3.8
		s7.4,5.9,9.7,10.1c2.3,4.2,3.5,8.8,3.5,13.8S279.6,125,277.3,129.2z"/>
	<polygon class="st0" points="361.3,151.5 361.3,80.7 353,80.7 353,131.2 305.4,79.6 304.9,79.6 304.9,150.3 313.2,150.3 
		313.2,100.8 360.8,151.5 	"/>
	<path class="st0" d="M431.3,115.3c0-6.4-1.4-12.3-4.2-17.6c-2.8-5.2-6.9-9.4-12.1-12.5s-11.5-4.6-18.6-4.6h-18v69.6h18
		c7.1,0,13.3-1.6,18.6-4.7c5.2-3.1,9.3-7.3,12.1-12.6C429.9,127.7,431.3,121.8,431.3,115.3z M419.6,128.7c-2.1,4.1-5.2,7.3-9.1,9.7
		c-4,2.4-8.7,3.6-14,3.6h-9.7V88.9h9.7c5.3,0,10,1.2,14,3.5c4,2.3,7,5.5,9.1,9.5c2.1,4,3.1,8.5,3.1,13.4
		C422.8,120.1,421.7,124.6,419.6,128.7z"/>
	<rect x="186.9" y="167.5" class="st0" width="8.4" height="69.6"/>
	<path class="st0" d="M249,172.1c-5.2-3-11.5-4.6-18.6-4.6h-18v69.6h18c7.1,0,13.3-1.6,18.6-4.7c5.2-3.1,9.3-7.3,12.1-12.6
		c2.8-5.3,4.2-11.2,4.2-17.7c0-6.4-1.4-12.3-4.2-17.6C258.3,179.3,254.2,175.1,249,172.1z M253.6,215.5L253.6,215.5
		c-2.1,4.1-5.2,7.3-9.1,9.7s-8.7,3.6-14,3.6h-9.7v-53.1h9.7c5.3,0,10,1.2,14,3.5c3.9,2.3,7,5.5,9.1,9.5c2.1,4,3.2,8.5,3.2,13.4
		C256.8,207,255.7,211.5,253.6,215.5z"/>
	<polygon class="st0" points="287.3,205.7 309.9,205.7 309.9,197.6 287.3,197.6 287.3,175.7 316.5,175.7 316.5,167.5 278.9,167.5 
		278.9,237.1 316.5,237.1 316.5,229 287.3,229 	"/>
	<polygon class="st0" points="332.1,166.4 332.1,237.1 340.5,237.1 340.5,187.6 388.1,238.3 388.6,238.3 388.6,167.5 380.2,167.5 
		380.2,218.1 332.6,166.4 	"/>
	<polygon class="st0" points="421.5,237.1 429.9,237.1 429.9,175.8 447.4,175.8 447.4,167.5 403.6,167.5 403.6,175.8 421.5,175.8 	
		"/>
	<rect x="462.4" y="167.5" class="st0" width="8.4" height="69.6"/>
	<polygon class="st0" points="503.7,237.1 512.2,237.1 512.2,175.8 529.6,175.8 529.6,167.5 485.8,167.5 485.8,175.8 503.7,175.8 	
		"/>
	<polygon class="st0" points="588.6,168 569.8,204.1 551.5,167.5 542,167.5 565.7,212.7 565.7,237.1 574.1,237.1 574.1,212.5 
		598,168 	"/>
	<polygon class="st0" points="218,52.1 190,107.9 176.8,81.5 167.3,81.5 190.1,124.4 227.4,52.1 	"/>
	<g>
		<polygon class="st0" points="186.9,143.6 186.9,153.4 195.4,153.4 195.4,127.2 		"/>
	</g>
</g>
</svg>
