<svg width="32" height="32" viewBox="0 0 32 32" fill="none" xmlns="http://www.w3.org/2000/svg">
<path d="M16.0006 2.00382C16.0006 2.00382 24.2528 1.63483 28.6279 9.8999H15.2984C15.2984 9.8999 12.7829 9.81911 10.6341 12.8599C10.0168 14.1363 9.35332 15.451 10.0979 18.042C9.02529 16.2313 4.40344 8.21234 4.40344 8.21234C4.40344 8.21234 7.66344 2.33057 16.0005 2.00382H16.0006Z" fill="#EF3F36"/>
<path d="M28.1995 22.9856C28.1995 22.9856 24.3916 30.2935 15.0245 29.9321C16.1819 27.9369 21.6911 18.4302 21.6911 18.4302C21.6911 18.4302 23.0221 16.3005 21.4519 12.9253C20.6532 11.7528 19.8392 10.5265 17.2159 9.87287C19.3262 9.85377 28.6047 9.87287 28.6047 9.87287C28.6047 9.87287 32.0806 15.6278 28.1995 22.9856Z" fill="#FCD900"/>
<path d="M3.85931 23.0434C3.85931 23.0434 -0.588992 16.1045 4.41095 8.20074C5.56452 10.1959 11.0737 19.7027 11.0737 19.7027C11.0737 19.7027 12.262 21.9171 15.9772 22.2475C17.3932 22.1438 18.8669 22.0554 20.7497 20.1217C19.7117 21.9517 15.0551 29.9476 15.0551 29.9476C15.0551 29.9476 8.31134 30.0707 3.8592 23.0434H3.85931Z" fill="#61BC5B"/>
<path d="M15.0208 30.0013L16.8957 22.2053C16.8957 22.2053 18.9559 22.0437 20.6844 20.1563C19.6118 22.0362 15.0208 30.0013 15.0208 30.0013Z" fill="#5AB055"/>
<path d="M9.71973 16.089C9.71973 12.6523 12.5168 9.86523 15.9658 9.86523C19.4148 9.86523 22.2119 12.6523 22.2119 16.089C22.2119 19.5257 19.4148 22.3127 15.9658 22.3127C12.5168 22.3089 9.71973 19.5257 9.71973 16.089Z" fill="white"/>
<path d="M10.7653 16.0891C10.7653 13.229 13.0917 10.907 15.966 10.907C18.8363 10.907 21.1665 13.2252 21.1665 16.0891C21.1665 18.9492 18.8402 21.2712 15.966 21.2712C13.0955 21.2712 10.7653 18.9492 10.7653 16.0891Z" fill="url(#paint0_linear_510_10061)"/>
<path d="M28.6008 9.87685L20.8809 12.1334C20.8809 12.1334 19.7158 10.4303 17.212 9.87685C19.3841 9.86528 28.6008 9.87685 28.6008 9.87685Z" fill="#EACA05"/>
<path d="M9.94747 17.7577C8.86325 15.8855 4.40344 8.21234 4.40344 8.21234L10.121 13.848C10.121 13.848 9.53453 15.0513 9.75453 16.7735L9.94736 17.7577H9.94747Z" fill="#DF3A32"/>
<defs>
<linearGradient id="paint0_linear_510_10061" x1="15.9657" y1="10.9802" x2="15.9657" y2="20.9592" gradientUnits="userSpaceOnUse">
<stop stop-color="#86BBE5"/>
<stop offset="1" stop-color="#1072BA"/>
</linearGradient>
</defs>
</svg>
