<svg width="504" height="487" viewBox="0 0 504 487" fill="none" xmlns="http://www.w3.org/2000/svg">
<path d="M295.225 84.3636C293.899 84.3636 292.573 83.9862 291.413 83.2312C259.595 64.5467 232.086 56.6199 199.109 56.6199C166.297 56.6199 135.142 65.4903 106.805 83.2312C102.827 85.6848 97.8558 83.9862 95.5358 79.4566C93.3815 74.927 94.8729 69.0763 98.8501 66.6227C129.673 47.5607 163.48 37.7466 199.109 37.7466C234.406 37.7466 265.23 46.617 299.036 66.434C303.179 68.8875 304.67 74.5495 302.516 79.0791C301.025 82.4763 298.207 84.3636 295.225 84.3636ZM58.0838 183.448C56.4266 183.448 54.7695 182.882 53.278 181.75C49.4665 178.73 48.6379 172.879 51.2894 168.539C67.6954 142.116 88.5757 121.355 113.433 106.823C165.468 76.2481 232.086 76.0594 284.287 106.634C309.145 121.167 330.025 141.738 346.431 167.972C349.082 172.124 348.254 178.164 344.442 181.184C340.631 184.203 335.494 183.26 332.842 178.919C317.928 155.138 299.036 136.454 276.664 123.431C229.104 95.6876 168.285 95.6876 120.89 123.62C98.353 136.831 79.4613 155.705 64.5467 179.485C63.221 182.127 60.7353 183.448 58.0838 183.448ZM161.657 411.249C159.502 411.249 157.348 410.305 155.857 408.418C141.439 391.998 133.651 381.429 122.548 358.593C111.113 335.379 105.147 307.069 105.147 276.683C105.147 220.629 147.239 174.955 198.943 174.955C250.647 174.955 292.739 220.629 292.739 276.683C292.739 281.967 289.093 286.119 284.453 286.119C279.813 286.119 276.167 281.967 276.167 276.683C276.167 231.009 241.532 193.829 198.943 193.829C156.354 193.829 121.719 231.009 121.719 276.683C121.719 303.86 127.022 328.962 137.131 349.345C147.737 371.049 155.028 380.297 167.788 395.018C170.937 398.793 170.937 404.643 167.788 408.418C165.965 410.305 163.811 411.249 161.657 411.249ZM280.476 376.334C260.755 376.334 243.355 370.672 229.104 359.536C204.412 340.474 189.663 309.522 189.663 276.683C189.663 271.398 193.309 267.246 197.949 267.246C202.589 267.246 206.235 271.398 206.235 276.683C206.235 303.294 218.166 328.395 238.384 343.871C250.15 352.931 263.904 357.272 280.476 357.272C284.453 357.272 291.082 356.705 297.71 355.384C302.185 354.441 306.493 357.838 307.322 363.122C308.15 368.218 305.168 373.125 300.527 374.069C291.082 376.145 282.796 376.334 280.476 376.334ZM247.167 415.213C246.504 415.213 245.675 415.024 245.012 414.835C218.663 406.531 201.429 395.396 183.366 375.201C160.165 348.967 147.405 314.052 147.405 276.683C147.405 246.108 170.274 221.195 198.446 221.195C226.618 221.195 249.487 246.108 249.487 276.683C249.487 296.877 264.898 313.297 283.956 313.297C303.013 313.297 318.425 296.877 318.425 276.683C318.425 205.53 264.567 147.778 198.28 147.778C151.217 147.778 108.13 177.598 88.7414 223.837C82.2784 239.125 78.9641 257.054 78.9641 276.683C78.9641 291.404 80.1241 314.618 90.0671 344.815C91.7243 349.722 89.57 355.195 85.2613 356.894C80.9527 358.781 76.1469 356.139 74.6555 351.421C66.5353 326.697 62.5581 302.161 62.5581 276.683C62.5581 254.035 66.3696 233.463 73.8269 215.533C95.8672 162.877 144.754 128.716 198.28 128.716C273.681 128.716 334.997 194.961 334.997 276.494C334.997 307.069 312.128 331.981 283.956 331.981C255.784 331.981 232.915 307.069 232.915 276.494C232.915 256.299 217.503 239.88 198.446 239.88C179.388 239.88 163.977 256.299 163.977 276.494C163.977 308.767 174.914 338.964 194.966 361.612C210.709 379.353 225.789 389.167 249.155 396.528C253.63 397.849 256.115 403.134 254.955 408.041C254.127 412.382 250.647 415.213 247.167 415.213Z" fill="black"/>
<circle cx="331.434" cy="364.578" r="120.026" fill="white" stroke="white" stroke-width="3"/>
<circle cx="331.433" cy="364.576" r="93.4301" fill="white" stroke="black" stroke-width="12"/>
<path d="M336.074 378.939L289.673 332.539L274.206 348.006L336.074 409.873L468.647 277.3L453.18 261.833L336.074 378.939Z" fill="black"/>
</svg>
