<svg xmlns="http://www.w3.org/2000/svg" x="0px" y="0px" width="70px" height="64px" viewBox="0 0 70 64">
    <path stroke-width="0.2" fill="currentColor" stroke="currentColor" d="M1.553,39.29h62.896c0.857,0,1.553-0.527,1.553-1.175c0-0.649-0.695-1.176-1.553-1.176H1.553
        C0.696,36.939,0,37.466,0,38.115C0,38.763,0.696,39.29,1.553,39.29z M64.449,43.989H1.553C0.695,43.989,0,44.515,0,45.165
        c0,0.646,0.696,1.174,1.553,1.174h62.896c0.857,0,1.553-0.527,1.553-1.174C66.002,44.515,65.307,43.989,64.449,43.989z
            M64.449,51.33H1.553C0.695,51.33,0,51.855,0,52.505c0,0.647,0.696,1.176,1.553,1.176h62.896c0.857,0,1.553-0.527,1.553-1.176
        S65.307,51.33,64.449,51.33z M13.491,23.33c1.434,0,2.838,0.275,4.174,0.819c0.319,0.131,0.68,0.113,0.986-0.047
        c0.306-0.159,0.526-0.446,0.603-0.782c1.149-5.092,5.599-8.649,10.82-8.649c2.591,0,5.115,0.915,7.105,2.574
        c0.396,0.332,0.965,0.364,1.396,0.081c2.646-1.737,5.714-2.655,8.873-2.655c8.936,0,16.202,7.268,16.202,16.2
        c0,0.992-0.104,1.959-0.275,2.902h2.374C65.9,32.826,66,31.861,66,30.871c0-10.229-8.322-18.55-18.552-18.55
        c-3.335,0-6.582,0.893-9.44,2.591c-2.297-1.676-5.081-2.591-7.936-2.591c-5.885,0-10.961,3.729-12.763,9.216
        c-1.24-0.37-2.52-0.557-3.82-0.557c-7.195,0-13.072,5.684-13.418,12.793h2.35C2.766,27.959,7.592,23.33,13.491,23.33z"/>
</svg>
