<svg width="827" height="93" viewBox="0 0 827 93" fill="none" xmlns="http://www.w3.org/2000/svg">
<g clip-path="url(#clip0_1_2166)">
<path d="M51.98 33.56V54.47C51.98 55.64 51.42 56.73 50.47 57.41L1.1 92.6C0.64 92.93 0 92.6 0 92.03V71.12C0 69.95 0.56 68.86 1.51 68.18L50.88 32.99C51.34 32.66 51.98 32.99 51.98 33.56Z" fill="white"/>
<path d="M51.98 0.700029V21.6C51.98 22.77 51.42 23.86 50.47 24.54L24.37 43.14C20.92 45.6 16.29 45.6 12.84 43.14L1.51 35.07C0.56 34.39 0 33.3 0 32.13V11.23C0 10.67 0.64 10.34 1.1 10.66L15.55 20.96C17.37 22.26 19.82 22.26 21.65 20.96L50.88 0.130029C51.34 -0.199971 51.98 0.130029 51.98 0.700029Z" fill="white"/>
<path d="M92.93 74.17V7.52002H121.44C133.71 7.52002 141.96 14.35 141.96 24.52C141.96 31 138.47 35.84 132.6 37.92C141.35 39.69 146.6 45.68 146.6 54.3C146.6 66.01 136.98 74.18 123.2 74.18H92.93V74.17ZM121.53 63.64C129.59 63.64 134.04 60.22 134.04 54.02C134.04 47.82 129.6 44.39 121.53 44.39H105.13V63.65H121.53V63.64ZM119.58 34.05C125.88 34.05 129.49 31.12 129.49 26C129.49 20.88 125.88 18.04 119.58 18.04H105.13V34.05H119.58Z" fill="white"/>
<path d="M798.82 38.5701V24.3501H793.33V21.4301H807.8V24.3501H802.34V38.5701H798.82Z" fill="white"/>
<path d="M823.43 38.57V29.88C823.43 28.72 823.44 27.71 823.46 26.52L819.73 38.56H816.23L812.52 26.52C812.54 27.7 812.55 28.71 812.55 29.87V38.56H809.08V21.42H814.25L818 34.01L821.75 21.42H826.88V38.56H823.41L823.43 38.57Z" fill="white"/>
<path d="M176.64 75.65C160.85 75.65 150.64 64.7199 150.64 47.7999C150.64 30.8799 161.05 19.95 176.54 19.95C192.03 19.95 201.8 29.9699 201.8 45.4799V51.72H163.08C163.84 60.24 169.13 65.69 176.73 65.69C182.65 65.69 187.24 62.58 189 57.36L189.2 56.7799H201.46L201.23 57.82C198.85 68.6499 189.2 75.66 176.65 75.66L176.64 75.65ZM189.78 42.2099C189.44 34.5999 184.54 29.91 176.83 29.91C169.12 29.91 164.5 34.3799 163.25 42.2099H189.79H189.78Z" fill="white"/>
<path d="M211.19 92.7301L220.03 70.8101L201.5 21.4401H214.19L231.6 67.8701C232.53 70.3601 232.5 73.0901 231.51 75.5501L224.59 92.7301H211.19Z" fill="white"/>
<path d="M231.01 57.0801L243.58 23.6901C244.09 22.3401 245.4 21.4301 246.84 21.4301H257.23L243.69 54.8501C243.15 56.2001 241.85 57.0801 240.39 57.0801H231.02H231.01Z" fill="white"/>
<path d="M757.99 57.0801L770.56 23.6901C771.07 22.3401 772.38 21.4301 773.82 21.4301H784.21L770.67 54.8501C770.13 56.2001 768.83 57.0801 767.37 57.0801H758H757.99Z" fill="white"/>
<path d="M282.78 75.65C266.96 75.65 256.32 64.4599 256.32 47.7999C256.32 31.1399 266.95 19.95 282.78 19.95C298.61 19.95 309.25 31.1399 309.25 47.7999C309.25 64.4599 298.61 75.65 282.78 75.65ZM282.78 29.91C274.04 29.91 268.61 36.7599 268.61 47.7999C268.61 58.84 274.04 65.69 282.78 65.69C291.52 65.69 296.96 58.84 296.96 47.7999C296.96 36.7599 291.53 29.91 282.78 29.91Z" fill="white"/>
<path d="M349.96 74.1699V43.0599C349.96 34.4599 346.69 30.0999 340.24 30.0999C337.39 30.0999 328.11 31.1699 328.11 44.9199V74.1699H316.38V21.4299H327.93V28.1199C331.47 22.8199 336.94 19.9399 343.58 19.9399C354.92 19.9399 361.69 28.1999 361.69 42.0399V74.1699H349.96Z" fill="white"/>
<path d="M392.96 75.65C381.33 75.65 368.82 66.93 368.82 47.8C368.82 28.67 381.33 19.95 392.96 19.95C400.27 19.95 406.5 23.23 410.21 28.87C410.2 28.2 410.2 27.54 410.2 26.83V0H421.93V74.17H410.3V68.95C410.3 68.13 410.3 67.36 410.3 66.59C406.61 72.32 400.33 75.65 392.96 75.65ZM395.74 29.91C386.85 29.91 381.1 36.93 381.1 47.8C381.1 58.67 386.85 65.69 395.74 65.69C404.63 65.69 410.29 58.5 410.29 47.8C410.29 37.1 404.44 29.91 395.74 29.91Z" fill="white"/>
<path d="M489.37 75.65C477.74 75.65 465.23 66.93 465.23 47.8C465.23 28.67 477.74 19.95 489.37 19.95C496.68 19.95 502.91 23.23 506.62 28.87C506.61 28.2 506.61 27.54 506.61 26.83V0H518.34V74.17H506.7V68.95C506.7 68.13 506.7 67.36 506.7 66.59C503.01 72.32 496.73 75.65 489.36 75.65H489.37ZM492.16 29.91C483.27 29.91 477.52 36.93 477.52 47.8C477.52 58.67 483.27 65.69 492.16 65.69C501.05 65.69 506.7 58.67 506.7 47.8C506.7 36.93 500.99 29.91 492.16 29.91Z" fill="white"/>
<path d="M551.47 75.65C535.68 75.65 525.47 64.7199 525.47 47.7999C525.47 30.8799 535.88 19.95 551.38 19.95C566.88 19.95 576.63 29.9699 576.63 45.4799V51.72H537.91C538.67 60.24 543.96 65.69 551.56 65.69C557.48 65.69 562.07 62.58 563.83 57.36L564.03 56.7799H576.29L576.06 57.82C573.68 68.6499 564.03 75.66 551.47 75.66V75.65ZM564.6 42.2099C564.26 34.5999 559.36 29.91 551.65 29.91C543.94 29.91 539.32 34.3799 538.07 42.2099H564.6Z" fill="white"/>
<path d="M617.16 74.1699V43.06C617.16 34.46 613.89 30.1 607.43 30.1C604.58 30.1 595.3 31.1699 595.3 44.9199V74.1699H583.57V21.43H595.11V28.1399C598.65 22.8299 604.12 19.95 610.77 19.95C622.11 19.95 628.88 28.2099 628.88 42.0499V74.18H617.15L617.16 74.1699Z" fill="white"/>
<path d="M656.99 74.17C647.45 74.17 642.4 69.16 642.4 59.67V31.58H632.38V21.43H642.4V7.52002H654.13V21.44H669.99V31.59H654.13V58.85C654.13 62.48 655.7 64.02 659.4 64.02H670.37V74.18H656.99V74.17Z" fill="white"/>
<path d="M688.09 2.68994H676.17V14.3199H688.09V2.68994Z" fill="white"/>
<path d="M688 21.4301H676.27V74.1701H688V21.4301Z" fill="white"/>
<path d="M458.56 7.52002H446.65V28.91H446.74V74.17H458.47V28.91H458.56V7.52002Z" fill="white"/>
<path d="M758.57 67.87L741.16 21.44H715.57V7.52002H703.84V21.43H693.82V31.57H703.84V59.67C703.84 69.15 708.88 74.17 718.42 74.17H731.8V64.02H720.83C717.14 64.02 715.56 62.47 715.56 58.84V31.58H732.26L746.99 70.81L738.14 92.73H751.11H751.55L758.47 75.55C759.46 73.08 759.5 70.36 758.56 67.87H758.57Z" fill="white"/>
</g>
<defs>
<clipPath id="clip0_1_2166">
<rect width="826.9" height="92.73" fill="white"/>
</clipPath>
</defs>
</svg>
