<svg version="1.1" viewBox="0 0 800 800" xml:space="preserve" xmlns="http://www.w3.org/2000/svg"><defs><linearGradient id="linearGradient66" x2="1" gradientTransform="scale(-86.48 86.48) rotate(-63.886 1.799 4.453)" gradientUnits="userSpaceOnUse"><stop stop-color="#687e67" offset="0"/><stop stop-color="#687e67" offset=".529"/><stop stop-color="#83a178" offset="1"/></linearGradient><linearGradient id="linearGradient92" x2="1" gradientTransform="scale(132.8 -132.8) rotate(-36.458 -2.712 -3.873)" gradientUnits="userSpaceOnUse"><stop stop-color="#687e67" offset="0"/><stop stop-color="#687e67" offset=".138"/><stop stop-color="#9bb48f" offset=".697"/><stop stop-color="#9bb48f" offset=".908"/><stop stop-color="#9bb48f" offset="1"/></linearGradient><linearGradient id="linearGradient126" x2="1" gradientTransform="matrix(97.417 0 0 -97.417 192.86 382.17)" gradientUnits="userSpaceOnUse"><stop stop-color="#9bb48f" offset="0"/><stop stop-color="#9bb48f" offset=".092"/><stop stop-color="#9bb48f" offset=".303"/><stop stop-color="#687e67" offset=".862"/><stop stop-color="#687e67" offset="1"/></linearGradient><linearGradient id="linearGradient152" x2="1" gradientTransform="matrix(97.417 0 0 -97.417 192.86 320.35)" gradientUnits="userSpaceOnUse"><stop stop-color="#9bb48f" offset="0"/><stop stop-color="#9bb48f" offset=".092"/><stop stop-color="#9bb48f" offset=".303"/><stop stop-color="#687e67" offset=".862"/><stop stop-color="#687e67" offset="1"/></linearGradient><linearGradient id="linearGradient186" x2="1" gradientTransform="matrix(97.417 0 0 -97.417 192.86 292.54)" gradientUnits="userSpaceOnUse"><stop stop-color="#9bb48f" offset="0"/><stop stop-color="#9bb48f" offset=".092"/><stop stop-color="#9bb48f" offset=".303"/><stop stop-color="#687e67" offset=".862"/><stop stop-color="#687e67" offset="1"/></linearGradient><linearGradient id="linearGradient220" x2="1" gradientTransform="matrix(97.417 0 0 -97.417 192.86 279.97)" gradientUnits="userSpaceOnUse"><stop stop-color="#9bb48f" offset="0"/><stop stop-color="#9bb48f" offset=".092"/><stop stop-color="#9bb48f" offset=".303"/><stop stop-color="#687e67" offset=".862"/><stop stop-color="#687e67" offset="1"/></linearGradient><linearGradient id="linearGradient250" x2="1" gradientTransform="scale(-136.494 136.494) rotate(-63.885 .986 3.099)" gradientUnits="userSpaceOnUse"><stop stop-color="#687e67" offset="0"/><stop stop-color="#687e67" offset=".529"/><stop stop-color="#83a178" offset="1"/></linearGradient><clipPath id="clipPath18"><path d="M0 600h600V0H0z"/></clipPath><clipPath id="clipPath102"><path d="M239.03 373.39l-42.134-24.315a5.087 5.087 0 01-2.545-4.407v-48.666c0-1.818.97-3.497 2.544-4.408l42.133-24.334a5.093 5.093 0 015.091 0l42.124 24.334a5.093 5.093 0 012.543 4.408v48.668a5.084 5.084 0 01-2.545 4.405l-42.123 24.315a5.09 5.09 0 01-5.088 0"/></clipPath><clipPath id="clipPath162"><path d="M239.03 373.39l-42.134-24.315a5.087 5.087 0 01-2.545-4.407v-48.666c0-1.818.97-3.497 2.544-4.408l42.133-24.334a5.093 5.093 0 015.091 0l42.124 24.334a5.093 5.093 0 012.543 4.408v48.668a5.084 5.084 0 01-2.545 4.405l-42.123 24.315a5.09 5.09 0 01-5.088 0"/></clipPath><clipPath id="clipPath196"><path d="M239.03 373.39l-42.134-24.315a5.087 5.087 0 01-2.545-4.407v-48.666c0-1.818.97-3.497 2.544-4.408l42.133-24.334a5.093 5.093 0 015.091 0l42.124 24.334a5.093 5.093 0 012.543 4.408v48.668a5.084 5.084 0 01-2.545 4.405l-42.123 24.315a5.09 5.09 0 01-5.088 0"/></clipPath><clipPath id="clipPath230"><path d="M239.03 373.39l-42.134-24.315a5.087 5.087 0 01-2.545-4.407v-48.666c0-1.818.97-3.497 2.544-4.408l42.133-24.334a5.093 5.093 0 015.091 0l42.124 24.334a5.093 5.093 0 012.543 4.408v48.668a5.084 5.084 0 01-2.545 4.405l-42.123 24.315a5.09 5.09 0 01-5.088 0"/></clipPath></defs><g clip-path="url(#clipPath18)" transform="matrix(1.763 0 0 -1.763 -128.695 929.138)"><path d="M296.95 165.06c-1.46 0-2.912.381-4.19 1.121l-13.338 7.892c-1.991 1.114-1.019 1.509-.362 1.738 2.657.922 3.195 1.135 6.031 2.743.295.167.687.103.992-.076l10.247-6.083c.371-.206.895-.206 1.237 0l39.95 23.058c.372.212.61.64.61 1.081v46.104c0 .451-.238.872-.62 1.101l-39.933 23.038a1.25 1.25 0 01-1.231 0l-39.923-23.045a1.285 1.285 0 01-.634-1.094v-46.104c0-.441.246-.859.63-1.068l10.944-6.323c5.938-2.969 9.574.528 9.574 4.041v45.519c0 .644.517 1.151 1.161 1.151h5.065c.634 0 1.158-.507 1.158-1.151v-45.519c0-7.925-4.316-12.47-11.829-12.47-2.309 0-4.127 0-9.202 2.501l-10.476 6.031a8.437 8.437 0 00-4.19 7.288v46.104c0 2.995 1.602 5.792 4.19 7.281l39.949 23.085c2.528 1.429 5.888 1.429 8.396 0l39.947-23.085a8.434 8.434 0 004.196-7.281v-46.104a8.457 8.457 0 00-4.196-7.288l-39.947-23.065a8.375 8.375 0 00-4.206-1.121" fill="#689f63"/><path d="M309.29 196.82c-17.482 0-21.144 8.024-21.144 14.755 0 .64.514 1.151 1.154 1.151h5.165c.577 0 1.058-.415 1.148-.978.78-5.258 3.105-7.912 13.677-7.912 8.416 0 11.999 1.904 11.999 6.369 0 2.574-1.016 4.485-14.095 5.766-10.931 1.081-17.692 3.496-17.692 12.24 0 8.061 6.794 12.868 18.186 12.868 12.798 0 19.131-4.442 19.933-13.972a1.17 1.17 0 00-.305-.889 1.178 1.178 0 00-.846-.369h-5.185a1.15 1.15 0 00-1.121.903c-1.244 5.533-4.269 7.301-12.476 7.301-9.189 0-10.257-3.201-10.257-5.6 0-2.906 1.26-3.751 13.667-5.393 12.277-1.623 18.109-3.921 18.109-12.55 0-8.704-7.258-13.69-19.917-13.69m48.65 48.88h1.343c1.098 0 1.304.773 1.304 1.221 0 1.183-.816 1.183-1.264 1.183h-1.383zm-1.632 3.789h2.975c1.019 0 3.016 0 3.016-2.283 0-1.589-1.019-1.914-1.632-2.118 1.184-.081 1.264-.856 1.426-1.955.083-.692.206-1.875.448-2.281h-1.831c-.043.406-.329 2.607-.329 2.728-.119.49-.285.733-.895.733h-1.506v-3.461h-1.672zm-3.563-4.298c0-3.586 2.893-6.479 6.436-6.479 3.586 0 6.478 2.954 6.478 6.479 0 3.584-2.932 6.436-6.478 6.436-3.503 0-6.436-2.81-6.436-6.436m14.155-.022c0-4.236-3.464-7.699-7.699-7.699-4.197 0-7.7 3.422-7.7 7.699 0 4.359 3.586 7.701 7.7 7.701 4.156 0 7.699-3.342 7.699-7.701" fill="#689f63"/><path d="M173.24 345.43a5.108 5.108 0 01-2.558 4.445l-42.355 24.375a4.977 4.977 0 01-2.331.674h-.438a5.052 5.052 0 01-2.339-.674l-42.355-24.375a5.132 5.132 0 01-2.561-4.445l.093-65.635c0-.913.474-1.762 1.277-2.21a2.461 2.461 0 012.541 0l25.172 14.414c1.592.945 2.561 2.614 2.561 4.439v30.664c0 1.828.968 3.52 2.554 4.429l10.718 6.173a5.092 5.092 0 002.564.687c.873 0 1.768-.226 2.544-.687l10.715-6.173a5.1 5.1 0 002.558-4.429v-30.664c0-1.825.982-3.504 2.564-4.439l25.165-14.414a2.49 2.49 0 012.557 0 2.556 2.556 0 011.271 2.21zm199.87-34.17c0-.456-.244-.879-.64-1.106l-14.548-8.386a1.282 1.282 0 00-1.277 0l-14.548 8.386c-.397.227-.64.65-.64 1.106v16.799c0 .456.243.879.639 1.108l14.547 8.402a1.28 1.28 0 001.281 0l14.547-8.402c.395-.229.639-.652.639-1.108zm3.931 124.4a2.56 2.56 0 01-3.805-2.235v-65a1.79 1.79 0 00-2.685-1.551l-10.609 6.112a5.115 5.115 0 01-5.112-.001l-42.371-24.453a5.115 5.115 0 01-2.559-4.431v-48.916c0-1.828.975-3.516 2.557-4.432l42.37-24.471a5.12 5.12 0 015.118 0l42.377 24.471a5.122 5.122 0 012.558 4.432v121.94a5.118 5.118 0 01-2.624 4.468zM518.13 328.5a5.116 5.116 0 012.546 4.424v11.854c0 1.823-.97 3.51-2.548 4.425l-42.099 24.443a5.117 5.117 0 01-5.127.007L428.546 349.2a5.115 5.115 0 01-2.558-4.43v-48.903c0-1.84.987-3.537 2.584-4.446l42.093-23.985a5.112 5.112 0 015.017-.028l25.46 14.151a2.557 2.557 0 01.032 4.455l-42.625 24.465a2.559 2.559 0 00-1.286 2.219v15.326c0 .914.488 1.76 1.281 2.216l13.266 7.648a2.555 2.555 0 002.554 0l13.272-7.648a2.556 2.556 0 001.28-2.216v-12.058a2.56 2.56 0 013.844-2.213z" fill="#333" fill-rule="evenodd"/><path d="M472.84 330.79a.98.98 0 00.982 0l8.13-4.69a.983.983 0 00.491-.851v-9.388a.982.982 0 00-.491-.851l-8.13-4.691a.98.98 0 00-.982 0l-8.124 4.691a.982.982 0 00-.491.851v9.388c0 .351.187.675.491.851z" fill="#689f63" fill-rule="evenodd"/></g><path d="M239.03 373.39l-42.134-24.315a5.085 5.085 0 01-2.545-4.407v-48.666c0-1.818.969-3.497 2.544-4.408l42.133-24.334a5.093 5.093 0 015.091 0l42.124 24.334a5.093 5.093 0 012.543 4.408v48.668a5.084 5.084 0 01-2.545 4.405l-42.123 24.315a5.09 5.09 0 01-5.088 0" fill="url(#linearGradient66)" transform="matrix(1.763 0 0 -1.763 -128.695 929.138)"/><path d="M195.4 292.91a5.09 5.09 0 011.497-1.317l36.143-20.874 6.017-3.46a5.127 5.127 0 012.936-.665c.337.028.673.09 1.001.185l44.43 81.357a5.06 5.06 0 01-1.181.938l-27.588 15.925-14.579 8.39c-.417.24-.864.413-1.323.526z" fill="url(#linearGradient92)" transform="matrix(1.763 0 0 -1.763 -128.695 929.138)"/><g clip-path="url(#clipPath102)" transform="matrix(1.763 0 0 -1.763 -128.695 929.138)"><path d="M237.63 382.33l-.58-.331h.774z" fill="url(#linearGradient126)"/></g><path d="M241.06 374.05a5.072 5.072 0 01-2.033-.655l-42.014-24.245 45.293-82.513a5.081 5.081 0 011.81.628l42.124 24.334a5.096 5.096 0 012.458 3.477l-46.178 78.89a5.295 5.295 0 01-1.46.084" fill="url(#linearGradient152)" transform="matrix(1.763 0 0 -1.763 -128.695 929.138)"/><g clip-path="url(#clipPath162)" transform="matrix(1.763 0 0 -1.763 -128.695 929.138)"><path d="M290.28 292.38l-.279.477v-.639z" fill="url(#linearGradient186)"/></g><g clip-path="url(#clipPath196)" transform="matrix(1.763 0 0 -1.763 -128.695 929.138)"><path d="M286.35 291.6l-42.177-24.333a5.084 5.084 0 00-1.861-.633l.84-1.53 46.847 27.117v.639l-1.158 1.979c-.347-1.348-1.263-2.528-2.491-3.239" fill="url(#linearGradient220)"/></g><g clip-path="url(#clipPath230)" transform="matrix(1.763 0 0 -1.763 -128.695 929.138)"><path d="M286.35 291.6l-42.177-24.333a5.084 5.084 0 00-1.861-.633l.84-1.53 46.847 27.117v.639l-1.158 1.979c-.347-1.348-1.263-2.528-2.491-3.239" fill="url(#linearGradient250)"/></g></svg>