<svg width="101" height="61" viewBox="0 0 101 61" fill="none" xmlns="http://www.w3.org/2000/svg">
<path d="M28.5616 22.0064C28.5616 23.237 28.6947 24.2348 28.9275 24.9665C29.1935 25.6982 29.5261 26.4964 29.9918 27.3611C30.1581 27.6272 30.2246 27.8933 30.2246 28.1261C30.2246 28.4587 30.025 28.7913 29.5926 29.1239L27.4973 30.5207C27.198 30.7203 26.8987 30.8201 26.6326 30.8201C26.3 30.8201 25.9674 30.6538 25.6348 30.3545C25.1692 29.8556 24.7701 29.3234 24.4375 28.7913C24.1049 28.2259 23.7723 27.594 23.4065 26.829C20.8123 29.8888 17.5529 31.4187 13.6283 31.4187C10.8346 31.4187 8.60623 30.6205 6.97654 29.0241C5.34686 27.4277 4.51538 25.2991 4.51538 22.6384C4.51538 19.8114 5.51315 17.5165 7.54195 15.787C9.57074 14.0576 12.2647 13.1928 15.6904 13.1928C16.8212 13.1928 17.9853 13.2926 19.2158 13.4589C20.4464 13.6252 21.7103 13.8913 23.0406 14.1906V11.7627C23.0406 9.235 22.5085 7.47227 21.4775 6.44124C20.4132 5.41021 18.6172 4.91133 16.0562 4.91133C14.8922 4.91133 13.6949 5.04436 12.4643 5.3437C11.2337 5.64303 10.0364 6.00888 8.87231 6.4745C8.34016 6.70731 7.94106 6.84035 7.70824 6.90687C7.47543 6.97339 7.30913 7.00664 7.1761 7.00664C6.71047 7.00664 6.47766 6.67406 6.47766 5.97562V4.34593C6.47766 3.81378 6.54418 3.41467 6.71047 3.18186C6.87677 2.94905 7.1761 2.71624 7.64172 2.48342C8.80579 1.88476 10.2027 1.38588 11.8324 0.986769C13.462 0.554402 15.1915 0.354848 17.0208 0.354848C20.9786 0.354848 23.8721 1.25284 25.7346 3.04883C27.5639 4.84481 28.4951 7.57205 28.4951 11.2305V22.0064H28.5616ZM15.0585 27.0618C16.156 27.0618 17.2868 26.8623 18.4841 26.4632C19.6815 26.064 20.7458 25.3323 21.6438 24.3346C22.1759 23.7027 22.575 23.0042 22.7746 22.206C22.9741 21.4078 23.1071 20.4433 23.1071 19.3125V17.9156C22.1426 17.6828 21.1116 17.4832 20.0473 17.3502C18.983 17.2172 17.952 17.1506 16.921 17.1506C14.6926 17.1506 13.0629 17.583 11.9654 18.481C10.8678 19.379 10.3357 20.6428 10.3357 22.3058C10.3357 23.8689 10.7348 25.033 11.5663 25.8312C12.3645 26.6627 13.5286 27.0618 15.0585 27.0618ZM41.7654 30.6538C41.1668 30.6538 40.7677 30.554 40.5016 30.3212C40.2355 30.1216 40.0027 29.656 39.8032 29.0241L31.9873 3.3149C31.7877 2.64972 31.688 2.21735 31.688 1.98454C31.688 1.45239 31.954 1.15306 32.4862 1.15306H35.7456C36.3775 1.15306 36.8098 1.25284 37.0427 1.48565C37.3087 1.68521 37.5083 2.15083 37.7078 2.78275L43.2953 24.8002L48.4837 2.78275C48.65 2.11757 48.8496 1.68521 49.1157 1.48565C49.3817 1.2861 49.8474 1.15306 50.446 1.15306H53.1067C53.7387 1.15306 54.171 1.25284 54.4371 1.48565C54.7032 1.68521 54.936 2.15083 55.069 2.78275L60.3239 25.0663L66.0777 2.78275C66.2773 2.11757 66.5101 1.68521 66.7429 1.48565C67.009 1.2861 67.4414 1.15306 68.04 1.15306H71.1331C71.6652 1.15306 71.9646 1.41914 71.9646 1.98454C71.9646 2.15083 71.9313 2.31713 71.8981 2.51668C71.8648 2.71624 71.7983 2.98231 71.6652 3.34816L63.6498 29.0574C63.4503 29.7225 63.2175 30.1549 62.9514 30.3545C62.6853 30.554 62.253 30.687 61.6876 30.687H58.8273C58.1954 30.687 57.763 30.5873 57.4969 30.3545C57.2309 30.1216 56.998 29.6893 56.865 29.0241L51.7099 7.57205L46.588 28.9908C46.4217 29.656 46.2221 30.0884 45.9561 30.3212C45.69 30.554 45.2244 30.6538 44.6257 30.6538H41.7654ZM84.5032 31.5518C82.7738 31.5518 81.0443 31.3522 79.3813 30.9531C77.7184 30.554 76.4213 30.1216 75.5565 29.6228C75.0244 29.3234 74.6586 28.9908 74.5255 28.6915C74.3925 28.3922 74.326 28.0596 74.326 27.7603V26.064C74.326 25.3656 74.592 25.033 75.0909 25.033C75.2905 25.033 75.49 25.0663 75.6896 25.1328C75.8891 25.1993 76.1885 25.3323 76.5211 25.4654C77.6519 25.9643 78.8824 26.3634 80.1796 26.6294C81.5099 26.8955 82.807 27.0286 84.1374 27.0286C86.2327 27.0286 87.8624 26.6627 88.9932 25.931C90.124 25.1993 90.7226 24.135 90.7226 22.7714C90.7226 21.8402 90.4233 21.0752 89.8247 20.4433C89.226 19.8114 88.0952 19.246 86.4655 18.7138L81.6429 17.2172C79.215 16.4522 77.4191 15.3214 76.3215 13.8247C75.224 12.3613 74.6586 10.7317 74.6586 9.00218C74.6586 7.60531 74.9579 6.37472 75.5565 5.31044C76.1552 4.24615 76.9534 3.3149 77.9512 2.5832C78.949 1.81824 80.0798 1.25284 81.4101 0.853733C82.7405 0.454625 84.1374 0.28833 85.6008 0.28833C86.3325 0.28833 87.0974 0.321589 87.8291 0.421366C88.5941 0.521143 89.2925 0.654179 89.9909 0.787215C90.6561 0.95351 91.288 1.1198 91.8867 1.31936C92.4854 1.51891 92.951 1.71847 93.2836 1.91802C93.7492 2.18409 94.0818 2.45016 94.2813 2.74949C94.4809 3.01557 94.5807 3.38142 94.5807 3.84704V5.41021C94.5807 6.10865 94.3146 6.4745 93.8157 6.4745C93.5497 6.4745 93.1173 6.34146 92.5519 6.07539C90.6561 5.21066 88.5275 4.77829 86.1662 4.77829C84.2704 4.77829 82.7738 5.07762 81.7427 5.70954C80.7117 6.34146 80.1796 7.30598 80.1796 8.66959C80.1796 9.60085 80.5121 10.3991 81.1773 11.031C81.8425 11.6629 83.0731 12.2948 84.8358 12.8602L89.5586 14.3569C91.9532 15.1218 93.6827 16.1861 94.7137 17.5497C95.7447 18.9134 96.2436 20.4765 96.2436 22.206C96.2436 23.6361 95.9443 24.9332 95.3789 26.064C94.7802 27.1948 93.982 28.1926 92.951 28.9908C91.92 29.8223 90.6894 30.421 89.2592 30.8533C87.7626 31.319 86.1994 31.5518 84.5032 31.5518Z" fill="#252F3E"/>
<path fill-rule="evenodd" clip-rule="evenodd" d="M90.7891 47.7157C79.8469 55.7976 63.9491 60.088 50.2797 60.088C31.1225 60.088 13.8611 53.0038 0.82363 41.2301C-0.207397 40.2989 0.723853 39.035 1.95443 39.7667C16.0562 47.9485 33.4506 52.9041 51.4437 52.9041C63.5833 52.9041 76.9201 50.3764 89.1926 45.188C91.0219 44.3565 92.5851 46.3853 90.7891 47.7157Z" fill="#FF9900"/>
<path fill-rule="evenodd" clip-rule="evenodd" d="M95.3456 42.5273C93.9487 40.7313 86.0997 41.6625 82.541 42.0949C81.4767 42.2279 81.3104 41.2967 82.2749 40.5982C88.5276 36.2081 98.8045 37.4719 100.002 38.9353C101.199 40.4319 99.6692 50.709 93.8157 55.6313C92.9177 56.3962 92.053 55.9971 92.4521 54.9994C93.7824 51.7067 96.7425 44.29 95.3456 42.5273Z" fill="#FF9900"/>
</svg>
