<svg width="827" height="93" viewBox="0 0 827 93" fill="none" xmlns="http://www.w3.org/2000/svg">
<g clip-path="url(#clip0_4324_3123)">
<path d="M51.98 33.5587V54.4687C51.98 55.6387 51.42 56.7287 50.47 57.4087L1.1 92.5987C0.64 92.9287 0 92.5987 0 92.0287V71.1187C0 69.9487 0.56 68.8587 1.51 68.1787L50.88 32.9887C51.34 32.6587 51.98 32.9887 51.98 33.5587Z" fill="#121212"/>
<path d="M51.98 0.699296V21.5993C51.98 22.7693 51.42 23.8593 50.47 24.5393L24.37 43.1393C20.92 45.5993 16.29 45.5993 12.84 43.1393L1.51 35.0693C0.56 34.3893 0 33.2993 0 32.1293V11.2293C0 10.6693 0.64 10.3393 1.1 10.6593L15.55 20.9593C17.37 22.2593 19.82 22.2593 21.65 20.9593L50.88 0.129296C51.34 -0.200704 51.98 0.129296 51.98 0.699296Z" fill="#121212"/>
<path d="M92.9297 74.1695V7.51953H121.44C133.71 7.51953 141.96 14.3495 141.96 24.5195C141.96 30.9995 138.47 35.8395 132.6 37.9195C141.35 39.6895 146.6 45.6795 146.6 54.2995C146.6 66.0095 136.98 74.1795 123.2 74.1795H92.9297V74.1695ZM121.53 63.6395C129.59 63.6395 134.04 60.2195 134.04 54.0195C134.04 47.8195 129.6 44.3895 121.53 44.3895H105.13V63.6495H121.53V63.6395ZM119.58 34.0495C125.88 34.0495 129.49 31.1195 129.49 25.9995C129.49 20.8795 125.88 18.0395 119.58 18.0395H105.13V34.0495H119.58Z" fill="#121212"/>
<path d="M798.82 38.5697V24.3497H793.33V21.4297H807.8V24.3497H802.34V38.5697H798.82Z" fill="#121212"/>
<path d="M823.43 38.5699V29.8799C823.43 28.7199 823.44 27.7099 823.46 26.5199L819.73 38.5599H816.23L812.52 26.5199C812.54 27.6999 812.55 28.7099 812.55 29.8699V38.5599H809.08V21.4199H814.25L818 34.0099L821.75 21.4199H826.88V38.5599H823.41L823.43 38.5699Z" fill="#121212"/>
<path d="M176.64 75.6492C160.85 75.6492 150.64 64.7192 150.64 47.7992C150.64 30.8792 161.05 19.9492 176.54 19.9492C192.03 19.9492 201.8 29.9692 201.8 45.4792V51.7192H163.08C163.84 60.2392 169.13 65.6892 176.73 65.6892C182.65 65.6892 187.24 62.5792 189 57.3592L189.2 56.7792H201.46L201.23 57.8192C198.85 68.6492 189.2 75.6592 176.65 75.6592L176.64 75.6492ZM189.78 42.2092C189.44 34.5992 184.54 29.9092 176.83 29.9092C169.12 29.9092 164.5 34.3792 163.25 42.2092H189.79H189.78Z" fill="#121212"/>
<path d="M211.19 92.7295L220.03 70.8094L201.5 21.4395H214.19L231.6 67.8695C232.53 70.3595 232.5 73.0895 231.51 75.5495L224.59 92.7295H211.19Z" fill="#121212"/>
<path d="M231.01 57.0797L243.58 23.6897C244.09 22.3397 245.4 21.4297 246.84 21.4297H257.23L243.69 54.8497C243.15 56.1997 241.85 57.0797 240.39 57.0797H231.02H231.01Z" fill="#121212"/>
<path d="M757.989 57.0797L770.559 23.6897C771.069 22.3397 772.379 21.4297 773.819 21.4297H784.209L770.669 54.8497C770.129 56.1997 768.829 57.0797 767.369 57.0797H757.999H757.989Z" fill="#121212"/>
<path d="M282.779 75.6492C266.959 75.6492 256.319 64.4592 256.319 47.7992C256.319 31.1392 266.949 19.9492 282.779 19.9492C298.609 19.9492 309.249 31.1392 309.249 47.7992C309.249 64.4592 298.609 75.6492 282.779 75.6492ZM282.779 29.9092C274.039 29.9092 268.609 36.7592 268.609 47.7992C268.609 58.8392 274.039 65.6892 282.779 65.6892C291.519 65.6892 296.959 58.8392 296.959 47.7992C296.959 36.7592 291.529 29.9092 282.779 29.9092Z" fill="#121212"/>
<path d="M349.96 74.1694V43.0595C349.96 34.4595 346.69 30.0995 340.24 30.0995C337.39 30.0995 328.11 31.1695 328.11 44.9195V74.1694H316.38V21.4295H327.93V28.1195C331.47 22.8195 336.94 19.9395 343.58 19.9395C354.92 19.9395 361.69 28.1995 361.69 42.0395V74.1694H349.96Z" fill="#121212"/>
<path d="M392.959 75.65C381.329 75.65 368.819 66.93 368.819 47.8C368.819 28.67 381.329 19.95 392.959 19.95C400.269 19.95 406.499 23.23 410.209 28.87C410.199 28.2 410.199 27.54 410.199 26.83V0H421.929V74.17H410.299V68.95C410.299 68.13 410.299 67.36 410.299 66.59C406.609 72.32 400.329 75.65 392.959 75.65ZM395.739 29.91C386.849 29.91 381.099 36.93 381.099 47.8C381.099 58.67 386.849 65.69 395.739 65.69C404.629 65.69 410.289 58.5 410.289 47.8C410.289 37.1 404.439 29.91 395.739 29.91Z" fill="#121212"/>
<path d="M489.369 75.65C477.739 75.65 465.229 66.93 465.229 47.8C465.229 28.67 477.739 19.95 489.369 19.95C496.679 19.95 502.909 23.23 506.619 28.87C506.609 28.2 506.609 27.54 506.609 26.83V0H518.34V74.17H506.699V68.95C506.699 68.13 506.699 67.36 506.699 66.59C503.009 72.32 496.729 75.65 489.359 75.65H489.369ZM492.159 29.91C483.269 29.91 477.519 36.93 477.519 47.8C477.519 58.67 483.269 65.69 492.159 65.69C501.049 65.69 506.699 58.67 506.699 47.8C506.699 36.93 500.989 29.91 492.159 29.91Z" fill="#121212"/>
<path d="M551.47 75.6492C535.68 75.6492 525.47 64.7192 525.47 47.7992C525.47 30.8792 535.88 19.9492 551.38 19.9492C566.88 19.9492 576.63 29.9692 576.63 45.4792V51.7192H537.91C538.67 60.2392 543.96 65.6892 551.56 65.6892C557.48 65.6892 562.07 62.5792 563.83 57.3592L564.03 56.7792H576.29L576.06 57.8192C573.68 68.6492 564.03 75.6592 551.47 75.6592V75.6492ZM564.6 42.2092C564.26 34.5992 559.36 29.9092 551.65 29.9092C543.94 29.9092 539.32 34.3792 538.07 42.2092H564.6Z" fill="#121212"/>
<path d="M617.159 74.1692V43.0592C617.159 34.4592 613.889 30.0992 607.429 30.0992C604.579 30.0992 595.299 31.1692 595.299 44.9192V74.1692H583.569V21.4292H595.109V28.1392C598.649 22.8292 604.119 19.9492 610.769 19.9492C622.109 19.9492 628.879 28.2092 628.879 42.0492V74.1792H617.149L617.159 74.1692Z" fill="#121212"/>
<path d="M656.99 74.1695C647.45 74.1695 642.4 69.1595 642.4 59.6695V31.5795H632.38V21.4295H642.4V7.51953H654.13V21.4395H669.99V31.5895H654.13V58.8495C654.13 62.4795 655.7 64.0195 659.4 64.0195H670.37V74.1795H656.99V74.1695Z" fill="#121212"/>
<path d="M688.09 2.68945H676.17V14.3195H688.09V2.68945Z" fill="#121212"/>
<path d="M688 21.4297H676.27V74.1697H688V21.4297Z" fill="#121212"/>
<path d="M458.559 7.51953H446.649V28.9095H446.739V74.1695H458.469V28.9095H458.559V7.51953Z" fill="#121212"/>
<path d="M758.569 67.8695L741.159 21.4395H715.569V7.51953H703.839V21.4295H693.819V31.5695H703.839V59.6695C703.839 69.1495 708.879 74.1695 718.419 74.1695H731.799V64.0195H720.829C717.139 64.0195 715.559 62.4695 715.559 58.8395V31.5795H732.259L746.989 70.8095L738.139 92.7295H751.109H751.549L758.469 75.5495C759.459 73.0795 759.499 70.3595 758.559 67.8695H758.569Z" fill="#121212"/>
</g>
<defs>
<clipPath id="clip0_4324_3123">
<rect width="826.9" height="92.73" fill="white"/>
</clipPath>
</defs>
</svg>
