<svg width="24" height="24" viewBox="0 0 24 24" fill="none" xmlns="http://www.w3.org/2000/svg">
<path d="M9.345 16.1854L11.5755 19.81C11.8394 20.2388 12.3068 20.5 12.8102 20.5C13.6988 20.5 14.3783 19.708 14.2432 18.8298L14.0001 17.25C13.7372 15.5411 15.0594 14 16.7884 14H17.4781C20.0151 14 21.6652 11.3301 20.5306 9.06096L19.3821 6.76394C18.5351 5.07001 16.8038 4 14.91 4H12.0001C10.6522 4 9.46006 4.66669 8.73537 5.6883C8.74513 5.79088 8.75012 5.89486 8.75012 6V14C8.75012 14.331 8.70064 14.6504 8.60867 14.9513C8.78589 15.2769 9.02186 15.6603 9.345 16.1854Z" fill="#2D264B"/>
<path d="M7.25012 6C7.25012 5.0335 6.46662 4.25 5.50012 4.25C4.53362 4.25 3.75012 5.0335 3.75012 6V14C3.75012 14.9665 4.53362 15.75 5.50012 15.75C6.46662 15.75 7.25012 14.9665 7.25012 14V6Z" fill="#2D264B"/>
</svg>
