<svg width="32" height="32" viewBox="0 0 32 32" fill="none" xmlns="http://www.w3.org/2000/svg">
<path d="M2.58536 17.4132C1.80488 16.6327 1.80488 15.3673 2.58536 14.5868L14.5868 2.58536C15.3673 1.80488 16.6327 1.80488 17.4132 2.58536L29.4146 14.5868C30.1951 15.3673 30.1951 16.6327 29.4146 17.4132L17.4132 29.4146C16.6327 30.1951 15.3673 30.1951 14.5868 29.4146L2.58536 17.4132Z" fill="#EE513B"/>
<path d="M12.1493 5.06165L10.934 6.27699L14.0729 9.41589C13.9459 9.68831 13.875 9.99213 13.875 10.3125C13.875 11.2221 14.4465 11.9982 15.25 12.3014V19.9799C14.4465 20.283 13.875 21.0592 13.875 21.9688C13.875 23.1424 14.8264 24.0938 16 24.0938C17.1736 24.0938 18.125 23.1424 18.125 21.9688C18.125 21.1441 17.6553 20.4292 16.9688 20.0769V12.3118L19.9693 15.3123C19.8485 15.5792 19.7813 15.8755 19.7813 16.1875C19.7813 17.3611 20.7326 18.3125 21.9063 18.3125C23.0799 18.3125 24.0313 17.3611 24.0313 16.1875C24.0313 15.0139 23.0799 14.0625 21.9063 14.0625C21.6782 14.0625 21.4585 14.0984 21.2526 14.1649L18.0301 10.9424C18.0918 10.7434 18.125 10.5318 18.125 10.3125C18.125 9.1389 17.1736 8.1875 16 8.1875C15.7807 8.1875 15.5691 8.22073 15.3701 8.28242L12.1493 5.06165Z" fill="white"/>
</svg>
