<svg width="24" height="24" viewBox="0 0 24 24" fill="none" xmlns="http://www.w3.org/2000/svg">
<path d="M9.34488 8.31457L11.5754 4.68995C11.8393 4.26118 12.3067 4 12.8101 4C13.6987 4 14.3782 4.79201 14.243 5.67022L14 7.25C13.7371 8.95887 15.0593 10.5 16.7882 10.5H17.478C20.015 10.5 21.6651 13.1699 20.5305 15.439L19.382 17.7361C18.535 19.43 16.8037 20.5 14.9098 20.5H12C10.6521 20.5 9.45994 19.8333 8.73525 18.8117C8.74501 18.7091 8.75 18.6051 8.75 18.5V10.5C8.75 10.169 8.70052 9.84955 8.60855 9.54866C8.78577 9.22312 9.02173 8.83968 9.34488 8.31457Z" fill="#2D264B"/>
<path d="M7.25 18.5C7.25 19.4665 6.4665 20.25 5.5 20.25C4.5335 20.25 3.75 19.4665 3.75 18.5V10.5C3.75 9.5335 4.5335 8.75 5.5 8.75C6.4665 8.75 7.25 9.5335 7.25 10.5V18.5Z" fill="#2D264B"/>
</svg>
