<svg width="1em" height="1em" viewBox="0 0 32 29" fill="none" xmlns="http://www.w3.org/2000/svg">
  <path d="M32 14.26c0-2.12-2.655-4.13-6.725-5.377.94-4.151.522-7.454-1.317-8.511-.424-.248-.92-.366-1.461-.366v1.456c.3 0 .54.059.743.17.887.509 1.272 2.447.972 4.94a20.12 20.12 0 0 1-.333 1.92 31.59 31.59 0 0 0-4.142-.712 31.85 31.85 0 0 0-2.713-3.264c2.126-1.977 4.122-3.06 5.48-3.06V0c-1.795 0-4.143 1.28-6.517 3.498C13.613 1.292 11.265.026 9.471.026V1.48c1.35 0 3.352 1.077 5.479 3.042-.913.96-1.826 2.05-2.694 3.257-1.474.156-2.87.398-4.148.718-.15-.653-.261-1.286-.34-1.893-.306-2.493.072-4.432.953-4.947.195-.118.45-.17.75-.17V.032c-.548 0-1.044.118-1.474.366-1.833 1.057-2.244 4.353-1.298 8.491C2.642 10.143 0 12.146 0 14.261c0 2.121 2.655 4.131 6.725 5.378-.94 4.151-.522 7.454 1.317 8.511.424.248.92.366 1.468.366 1.794 0 4.142-1.28 6.516-3.499 2.374 2.206 4.723 3.472 6.516 3.472.548 0 1.044-.117 1.474-.365 1.833-1.057 2.244-4.354 1.298-8.491C29.358 18.386 32 16.375 32 14.26Zm-8.492-4.352a29.38 29.38 0 0 1-.881 2.578 35.315 35.315 0 0 0-1.794-3.094c.927.137 1.82.307 2.675.516Zm-2.988 6.95a34.787 34.787 0 0 1-1.572 2.494 33.935 33.935 0 0 1-5.883.006 34.036 34.036 0 0 1-2.935-5.078 34.783 34.783 0 0 1 2.922-5.097 33.915 33.915 0 0 1 5.883-.006 34.054 34.054 0 0 1 2.935 5.078c-.41.874-.86 1.749-1.35 2.604Zm2.107-.848c.352.875.652 1.75.9 2.598a29.26 29.26 0 0 1-2.687.522 36.034 36.034 0 0 0 1.787-3.12Zm-6.614 6.964a26.898 26.898 0 0 1-1.813-2.088 40.36 40.36 0 0 0 1.793.045c.614 0 1.22-.013 1.814-.045a25.492 25.492 0 0 1-1.794 2.088ZM11.16 19.13a29.414 29.414 0 0 1-2.674-.516c.241-.842.541-1.71.88-2.578.268.522.548 1.044.855 1.567.306.522.62 1.03.94 1.527Zm4.82-13.582a26.908 26.908 0 0 1 1.814 2.088A40.345 40.345 0 0 0 16 7.591c-.613 0-1.22.013-1.813.045a25.48 25.48 0 0 1 1.793-2.088Zm-4.826 3.844a36.118 36.118 0 0 0-1.788 3.113 27.988 27.988 0 0 1-.9-2.597 31.66 31.66 0 0 1 2.688-.516ZM5.25 17.564c-2.31-.986-3.803-2.278-3.803-3.303s1.494-2.324 3.803-3.303a20.08 20.08 0 0 1 1.806-.659c.372 1.28.861 2.61 1.468 3.975a30.917 30.917 0 0 0-1.448 3.955 19.824 19.824 0 0 1-1.826-.665ZM8.76 26.89c-.887-.509-1.272-2.447-.972-4.94.072-.614.19-1.26.333-1.92 1.278.314 2.674.555 4.141.712a31.842 31.842 0 0 0 2.714 3.264c-2.126 1.977-4.122 3.06-5.48 3.06-.293-.006-.54-.065-.736-.176Zm15.472-4.973c.306 2.493-.072 4.432-.953 4.947-.195.118-.45.17-.75.17-1.35 0-3.352-1.077-5.479-3.041a30.83 30.83 0 0 0 2.694-3.257 30.454 30.454 0 0 0 4.148-.718c.15.659.268 1.292.34 1.899Zm2.51-4.354c-.56.242-1.173.457-1.806.66a31.365 31.365 0 0 0-1.468-3.975 30.903 30.903 0 0 0 1.448-3.955c.646.202 1.26.424 1.833.665 2.31.986 3.803 2.278 3.803 3.303-.006 1.025-1.5 2.323-3.81 3.303Z" fill="#61DAFB"></path>
  <path d="M15.993 17.244a2.982 2.982 0 0 0 2.981-2.983 2.982 2.982 0 1 0-2.98 2.983Z" fill="#61DAFB"></path>
</svg>
