<svg width="100" height="34" viewBox="0 0 100 34" fill="none" xmlns="http://www.w3.org/2000/svg">
<g clip-path="url(#clip0_5_334)">
<path d="M12.575 8.44995C5.625 8.44995 0 14.075 0 21.025C0 27.975 5.625 33.6 12.575 33.6C19.525 33.6 25.15 27.975 25.15 21.025C25.15 14.075 19.525 8.44995 12.575 8.44995ZM12.575 27.325C9.1 27.325 6.275 24.5 6.275 21.025C6.275 17.55 9.1 14.725 12.575 14.725C16.05 14.725 18.875 17.55 18.875 21.025C18.875 24.5 16.05 27.325 12.575 27.325Z" fill="#00297A"/>
<path d="M34.675 25.25C34.675 24.25 35.875 23.775 36.575 24.475C39.725 27.675 44.925 33.175 44.95 33.2C45.025 33.275 45.1 33.4 45.4 33.5C45.525 33.55 45.725 33.55 45.95 33.55H51.625C52.65 33.55 52.95 32.375 52.475 31.775L43.075 22.15L42.575 21.65C41.5 20.375 41.625 19.875 42.85 18.575L50.3 10.25C50.775 9.65 50.475 8.5 49.425 8.5H44.275C44.075 8.5 43.925 8.5 43.775 8.55C43.475 8.65 43.35 8.75 43.275 8.85C43.25 8.875 39.125 13.325 36.575 16.05C35.875 16.8 34.625 16.3 34.625 15.275V1C34.625 0.275 34.025 0 33.55 0H29.35C28.625 0 28.275 0.475 28.275 0.9V32.55C28.275 33.275 28.875 33.475 29.375 33.475H33.575C34.225 33.475 34.65 33 34.65 32.525V32.2V25.25H34.675Z" fill="#00297A"/>
<path d="M68.975 32.4L68.5251 28.2C68.4751 27.625 67.925 27.225 67.35 27.325C67.025 27.375 66.7 27.4 66.375 27.4C63.025 27.4 60.3 24.775 60.1 21.45C60.1 21.35 60.1 21.225 60.1 21.1V15.95C60.1 15.275 60.6001 14.725 61.2751 14.725H66.9001C67.3001 14.725 67.9001 14.375 67.9001 13.65V9.675C67.9001 8.9 67.4 8.5 66.95 8.5H61.2751C60.6251 8.5 60.1001 8.025 60.0751 7.375V1C60.0751 0.6 59.775 0 59 0H54.8251C54.3001 0 53.8 0.325 53.8 0.975C53.8 0.975 53.8 21.35 53.8 21.45C53.975 28.25 59.55 33.675 66.375 33.675C66.95 33.675 67.5001 33.625 68.0501 33.55C68.6501 33.475 69.05 32.975 68.975 32.4Z" fill="#00297A"/>
<path d="M99.275 27.125C95.725 27.125 95.175 25.85 95.175 21.075C95.175 21.05 95.175 21.05 95.175 21.025V9.55005C95.175 9.15005 94.875 8.47505 94.075 8.47505H89.875C89.35 8.47505 88.775 8.90005 88.775 9.55005V10.075C86.95 9.02505 84.825 8.42505 82.575 8.42505C75.625 8.42505 70 14.05 70 21C70 27.95 75.625 33.575 82.575 33.575C85.7 33.575 88.55 32.425 90.75 30.55C91.925 32.35 93.825 33.55 96.8 33.575C97.3 33.575 100 33.675 100 32.4V27.925C100 27.55 99.7 27.125 99.275 27.125ZM82.6 27.325C79.125 27.325 76.3 24.5 76.3 21.025C76.3 17.55 79.125 14.725 82.6 14.725C86.075 14.725 88.9 17.55 88.9 21.025C88.875 24.5 86.05 27.325 82.6 27.325Z" fill="#00297A"/>
</g>
<defs>
<clipPath id="clip0_5_334">
<rect width="100" height="33.75" fill="white"/>
</clipPath>
</defs>
</svg>
