<svg width="32" height="32" viewBox="0 0 32 32" fill="none" xmlns="http://www.w3.org/2000/svg">
<path d="M16 2C8.27812 2 2 8.27812 2 16C2 23.7219 8.27812 30 16 30C23.7219 30 30 23.7219 30 16C30 8.27812 23.7219 2 16 2Z" fill="#F48024"/>
<path d="M19.5407 18.3627L12.1085 17.2884L12.3661 15.6605L19.6339 17.0582L19.5407 18.3627Z" fill="white"/>
<path d="M19.6723 16.6307L13.095 13.5613L13.698 12.2458L20.2752 15.3152L19.6723 16.6307Z" fill="white"/>
<path d="M20.5492 14.9864L14.9586 10.3275L15.8904 9.23128L21.481 13.8902L20.5492 14.9864Z" fill="white"/>
<path d="M17.3702 7.80621L18.5213 6.92926L22.8513 12.7391L21.7002 13.6161L17.3702 7.80621Z" fill="white"/>
<path d="M19.5626 20.5222H11.8892V18.8779H19.5626V20.5222Z" fill="white"/>
<path d="M20.6588 17.2335V21.6183H10.793V17.2335H9.14868V23.2626H22.3031V17.2335H20.6588Z" fill="white"/>
</svg>
