<svg xmlns="http://www.w3.org/2000/svg" xmlns:xlink="http://www.w3.org/1999/xlink" xmlns:lucid="lucid" width="1834.49" height="904.76"><g transform="translate(3400 1280)" lucid:page-tab-id="0_0"><path d="M-2660-1034a6 6 0 0 1 6-6h286.5a6 6 0 0 1 6 6v132.76a6 6 0 0 1-6 6H-2654a6 6 0 0 1-6-6z" stroke="#1071e5" stroke-width="3" fill="#cfe4ff"/><use xlink:href="#a" transform="matrix(1,0,0,1,-2655,-1034.9999999999998) translate(77.89506172839506 77.74305555555556)"/><path d="M-2660-774.48a6 6 0 0 1 6-6h286.5a6 6 0 0 1 6 6v132.77a6 6 0 0 1-6 6H-2654a6 6 0 0 1-6-6z" stroke="#1071e5" stroke-width="3" fill="#edf5ff"/><use xlink:href="#b" transform="matrix(1,0,0,1,-2655,-775.4761904761904) translate(65.73456790123456 77.74305555555556)"/><path d="M-2660-534a6 6 0 0 1 6-6h286.5a6 6 0 0 1 6 6v132.76a6 6 0 0 1-6 6H-2654a6 6 0 0 1-6-6z" stroke="#1071e5" stroke-width="3" fill="#fff"/><use xlink:href="#c" transform="matrix(1,0,0,1,-2655.0000000000005,-535) translate(36.10493827160495 77.74305555555556)"/><path d="M-2320-534a6 6 0 0 1 6-6h508a6 6 0 0 1 6 6v132.76a6 6 0 0 1-6 6h-508a6 6 0 0 1-6-6z" stroke="#1071e5" stroke-width="3" fill="#fff"/><use xlink:href="#d" transform="matrix(1,0,0,1,-2315.0000000000005,-535) translate(12.469135802469168 77.74305555555556)"/><use xlink:href="#e" transform="matrix(1,0,0,1,-2315.0000000000005,-535) translate(241.60493827160494 77.74305555555556)"/><use xlink:href="#f" transform="matrix(1,0,0,1,-2315.0000000000005,-535) translate(418.7654320987654 77.74305555555556)"/><path d="M-3020-774.48a6 6 0 0 1 6-6h286.5a6 6 0 0 1 6 6v132.77a6 6 0 0 1-6 6H-3014a6 6 0 0 1-6-6z" stroke="#1071e5" stroke-width="3" fill="#edf5ff"/><use xlink:href="#g" transform="matrix(1,0,0,1,-3015,-775.4761904761904) translate(23.882716049382708 77.74305555555556)"/><path d="M-2320-774.48a6 6 0 0 1 6-6h286.5a6 6 0 0 1 6 6v132.77a6 6 0 0 1-6 6H-2314a6 6 0 0 1-6-6z" stroke="#1071e5" stroke-width="3" fill="#edf5ff"/><use xlink:href="#h" transform="matrix(1,0,0,1,-2315,-775.4761904761904) translate(78.01851851851852 77.74305555555556)"/><path d="M-2660-1254a6 6 0 0 1 6-6h286.5a6 6 0 0 1 6 6v132.76a6 6 0 0 1-6 6H-2654a6 6 0 0 1-6-6z" stroke="#1071e5" stroke-width="3" fill="#6db1ff"/><use xlink:href="#i" transform="matrix(1,0,0,1,-2655,-1255) translate(67.40123456790124 77.74305555555556)"/><path d="M-3020-1034a6 6 0 0 1 6-6h286.5a6 6 0 0 1 6 6v132.76a6 6 0 0 1-6 6H-3014a6 6 0 0 1-6-6z" stroke="#1071e5" stroke-width="3" fill="#cfe4ff"/><use xlink:href="#j" transform="matrix(1,0,0,1,-3015,-1035) translate(84.12962962962963 77.74305555555556)"/><path d="M-2300-1034a6 6 0 0 1 6-6h286.5a6 6 0 0 1 6 6v132.76a6 6 0 0 1-6 6H-2294a6 6 0 0 1-6-6z" stroke="#1071e5" stroke-width="3" fill="#cfe4ff"/><use xlink:href="#k" transform="matrix(1,0,0,1,-2295,-1034.9999999999998) translate(79.12962962962963 77.74305555555556)"/><path d="M-3200.67-534a6 6 0 0 1 6-6h467.18a6 6 0 0 1 6 6v132.76a6 6 0 0 1-6 6h-467.17a6 6 0 0 1-6-6z" stroke="#1071e5" stroke-width="3" fill="#fff"/><use xlink:href="#l" transform="matrix(1,0,0,1,-3195.667497242086,-535) translate(14.814814814814838 77.74305555555556)"/><use xlink:href="#m" transform="matrix(1,0,0,1,-3195.667497242086,-535) translate(315.0617283950617 77.74305555555556)"/><path d="M-3380-774.48a6 6 0 0 1 6-6h286.5a6 6 0 0 1 6 6v132.77a6 6 0 0 1-6 6H-3374a6 6 0 0 1-6-6z" stroke="#1071e5" stroke-width="3" fill="#edf5ff"/><use xlink:href="#n" transform="matrix(1,0,0,1,-3375,-775.4761904761904) translate(73.01851851851852 77.74305555555556)"/><path d="M-1960-774.48a6 6 0 0 1 6-6h362.5a6 6 0 0 1 6 6v132.77a6 6 0 0 1-6 6H-1954a6 6 0 0 1-6-6z" stroke="#1071e5" stroke-width="3" fill="#edf5ff"/><use xlink:href="#o" transform="matrix(1,0,0,1,-1955,-775.4761904761904) translate(6.141975308641975 77.74305555555556)"/><use xlink:href="#p" transform="matrix(1,0,0,1,-1955,-775.4761904761904) translate(220.58641975308643 77.74305555555556)"/><path d="M-2510.74-1113.24v29.62a6 6 0 0 1-6 6h-348a6 6 0 0 0-6 6v13.74" stroke="#1071e5" fill="none"/><path d="M-2510.24-1113.22h-1v-.52h1z" stroke="#1071e5" stroke-width=".05" fill="#1071e5"/><path d="M-2870.74-1043.12l-4.64-14.26h9.27z" stroke="#1071e5" fill="#1071e5"/><path d="M-2510.74-1113.24v55.36" stroke="#1071e5" fill="none"/><path d="M-2510.24-1113.22h-1v-.52h1z" stroke="#1071e5" stroke-width=".05" fill="#1071e5"/><path d="M-2510.74-1043.12l-4.64-14.26h9.27z" stroke="#1071e5" fill="#1071e5"/><path d="M-2510.74-1113.24v29.62a6 6 0 0 0 6 6h348a6 6 0 0 1 6 6v13.74" stroke="#1071e5" fill="none"/><path d="M-2510.24-1113.22h-1v-.52h1z" stroke="#1071e5" stroke-width=".05" fill="#1071e5"/><path d="M-2150.74-1043.12l-4.64-14.26h9.27z" stroke="#1071e5" fill="#1071e5"/><path d="M-2510.74-893.24v94.88" stroke="#1071e5" fill="none"/><path d="M-2510.24-893.23h-1v-.5h1z" stroke="#1071e5" stroke-width=".05" fill="#1071e5"/><path d="M-2510.74-783.6l-4.64-14.26h9.27z" stroke="#1071e5" fill="#1071e5"/><path d="M-2510.74-893.24v49.38a6 6 0 0 0 6 6h328a6 6 0 0 1 6 6v33.5" stroke="#1071e5" fill="none"/><path d="M-2510.24-893.23h-1v-.5h1z" stroke="#1071e5" stroke-width=".05" fill="#1071e5"/><path d="M-2170.74-783.6l-4.64-14.26h9.27z" stroke="#1071e5" fill="#1071e5"/><path d="M-2510.74-893.24v49.38a6 6 0 0 1-6 6h-348a6 6 0 0 0-6 6v33.5" stroke="#1071e5" fill="none"/><path d="M-2510.24-893.23h-1v-.5h1z" stroke="#1071e5" stroke-width=".05" fill="#1071e5"/><path d="M-2870.74-783.6l-4.64-14.26h9.27z" stroke="#1071e5" fill="#1071e5"/><path d="M-2510.74-893.24v49.38a6 6 0 0 0 6 6h725.98a6 6 0 0 1 6 6v33.5" stroke="#1071e5" fill="none"/><path d="M-2510.24-893.23h-1v-.5h1z" stroke="#1071e5" stroke-width=".05" fill="#1071e5"/><path d="M-1772.76-783.6l-4.63-14.26h9.28z" stroke="#1071e5" fill="#1071e5"/><path d="M-2510.74-893.24v49.38a6 6 0 0 1-6 6h-708a6 6 0 0 0-6 6v33.5" stroke="#1071e5" fill="none"/><path d="M-2510.24-893.23h-1v-.5h1z" stroke="#1071e5" stroke-width=".05" fill="#1071e5"/><path d="M-3230.74-783.6l-4.64-14.26h9.27z" stroke="#1071e5" fill="#1071e5"/><path d="M-2510.74-633.7v39.84a6 6 0 0 0 6 6H-2066a6 6 0 0 1 6 6v23.98" stroke="#1071e5" fill="none"/><path d="M-2510.24-633.7h-1v-.5h1z" stroke="#1071e5" stroke-width=".05" fill="#1071e5"/><path d="M-2060-543.12l-4.64-14.26h9.28z" stroke="#1071e5" fill="#1071e5"/><path d="M-2870.74-633.7v39.84a6 6 0 0 1-6 6h-78.34a6 6 0 0 0-6 6v23.98" stroke="#1071e5" fill="none"/><path d="M-2870.24-633.7h-1v-.5h1z" stroke="#1071e5" stroke-width=".05" fill="#1071e5"/><path d="M-2961.08-543.12l-4.64-14.26h9.28z" stroke="#1071e5" fill="#1071e5"/><path d="M-2510.74-633.7V-557.9" stroke="#1071e5" fill="none"/><path d="M-2510.24-633.7h-1v-.5h1z" stroke="#1071e5" stroke-width=".05" fill="#1071e5"/><path d="M-2510.74-543.12l-4.64-14.26h9.27z" stroke="#1071e5" fill="#1071e5"/><defs><path fill="#333" d="M240-174c0 40-23 61-54 70L253 0h-59l-57-94H76V0H24v-248c93 4 217-23 216 74zM76-134c48-2 112 12 112-38 0-48-66-32-112-35v73" id="q"/><path fill="#333" d="M185-48c-13 30-37 53-82 52C43 2 14-33 14-96s30-98 90-98c62 0 83 45 84 108H66c0 31 8 55 39 56 18 0 30-7 34-22zm-45-69c5-46-57-63-70-21-2 6-4 13-4 21h74" id="r"/><path fill="#333" d="M133-34C117-15 103 5 69 4 32 3 11-16 11-54c-1-60 55-63 116-61 1-26-3-47-28-47-18 1-26 9-28 27l-52-2c7-38 36-58 82-57s74 22 75 68l1 82c-1 14 12 18 25 15v27c-30 8-71 5-69-32zm-48 3c29 0 43-24 42-57-32 0-66-3-65 30 0 17 8 27 23 27" id="s"/><path fill="#333" d="M25 0v-261h50V0H25" id="t"/><path fill="#333" d="M220-157c-53 9-28 100-34 157h-49v-107c1-27-5-49-29-50C55-147 81-57 75 0H25l-1-190h47c2 12-1 28 3 38 10-53 101-56 108 0 13-22 24-43 59-42 82 1 51 116 57 194h-49v-107c-1-25-5-48-29-50" id="u"/><g id="a"><use transform="matrix(0.12345679012345678,0,0,0.12345679012345678,0,0)" xlink:href="#q"/><use transform="matrix(0.12345679012345678,0,0,0.12345679012345678,31.975308641975307,0)" xlink:href="#r"/><use transform="matrix(0.12345679012345678,0,0,0.12345679012345678,56.666666666666664,0)" xlink:href="#s"/><use transform="matrix(0.12345679012345678,0,0,0.12345679012345678,81.35802469135803,0)" xlink:href="#t"/><use transform="matrix(0.12345679012345678,0,0,0.12345679012345678,93.70370370370371,0)" xlink:href="#u"/></g><path fill="#333" d="M24 0v-248h52V0H24" id="v"/><path fill="#333" d="M88-194c31-1 46 15 58 34l-1-101h50l1 261h-48c-2-10 0-23-3-31C134-8 116 4 84 4 32 4 16-41 15-95c0-56 19-97 73-99zm17 164c33 0 40-30 41-66 1-37-9-64-41-64s-38 30-39 65c0 43 13 65 39 65" id="w"/><path fill="#333" d="M135-194c87-1 58 113 63 194h-50c-7-57 23-157-34-157-59 0-34 97-39 157H25l-1-190h47c2 12-1 28 3 38 12-26 28-41 61-42" id="x"/><path fill="#333" d="M115-3C79 11 28 4 28-45v-112H4v-33h27l15-45h31v45h36v33H77v99c-1 23 16 31 38 25v30" id="y"/><path fill="#333" d="M25-224v-37h50v37H25zM25 0v-190h50V0H25" id="z"/><path fill="#333" d="M123 10C108 53 80 86 19 72V37c35 8 53-11 59-39L3-190h52l48 148c12-52 28-100 44-148h51" id="A"/><g id="b"><use transform="matrix(0.12345679012345678,0,0,0.12345679012345678,0,0)" xlink:href="#v"/><use transform="matrix(0.12345679012345678,0,0,0.12345679012345678,12.345679012345679,0)" xlink:href="#w"/><use transform="matrix(0.12345679012345678,0,0,0.12345679012345678,39.382716049382715,0)" xlink:href="#r"/><use transform="matrix(0.12345679012345678,0,0,0.12345679012345678,64.07407407407408,0)" xlink:href="#x"/><use transform="matrix(0.12345679012345678,0,0,0.12345679012345678,91.11111111111111,0)" xlink:href="#y"/><use transform="matrix(0.12345679012345678,0,0,0.12345679012345678,105.80246913580247,0)" xlink:href="#z"/><use transform="matrix(0.12345679012345678,0,0,0.12345679012345678,118.14814814814815,0)" xlink:href="#y"/><use transform="matrix(0.12345679012345678,0,0,0.12345679012345678,132.83950617283952,0)" xlink:href="#A"/></g><path fill="#333" d="M67-125c0 53 21 87 73 88 37 1 54-22 65-47l45 17C233-25 199 4 140 4 58 4 20-42 15-125 8-235 124-281 211-232c18 10 29 29 36 50l-46 12c-8-25-30-41-62-41-52 0-71 34-72 86" id="B"/><path fill="#333" d="M135-150c-39-12-60 13-60 57V0H25l-1-190h47c2 13-1 29 3 40 6-28 27-53 61-41v41" id="C"/><g id="c"><use transform="matrix(0.12345679012345678,0,0,0.12345679012345678,0,0)" xlink:href="#B"/><use transform="matrix(0.12345679012345678,0,0,0.12345679012345678,31.975308641975307,0)" xlink:href="#C"/><use transform="matrix(0.12345679012345678,0,0,0.12345679012345678,49.25925925925925,0)" xlink:href="#r"/><use transform="matrix(0.12345679012345678,0,0,0.12345679012345678,73.9506172839506,0)" xlink:href="#w"/><use transform="matrix(0.12345679012345678,0,0,0.12345679012345678,100.98765432098764,0)" xlink:href="#r"/><use transform="matrix(0.12345679012345678,0,0,0.12345679012345678,125.679012345679,0)" xlink:href="#x"/><use transform="matrix(0.12345679012345678,0,0,0.12345679012345678,152.71604938271602,0)" xlink:href="#y"/><use transform="matrix(0.12345679012345678,0,0,0.12345679012345678,167.4074074074074,0)" xlink:href="#z"/><use transform="matrix(0.12345679012345678,0,0,0.12345679012345678,179.75308641975306,0)" xlink:href="#s"/><use transform="matrix(0.12345679012345678,0,0,0.12345679012345678,204.44444444444443,0)" xlink:href="#t"/></g><g id="d"><use transform="matrix(0.12345679012345678,0,0,0.12345679012345678,0,0)" xlink:href="#B"/><use transform="matrix(0.12345679012345678,0,0,0.12345679012345678,31.975308641975307,0)" xlink:href="#C"/><use transform="matrix(0.12345679012345678,0,0,0.12345679012345678,49.25925925925925,0)" xlink:href="#r"/><use transform="matrix(0.12345679012345678,0,0,0.12345679012345678,73.9506172839506,0)" xlink:href="#w"/><use transform="matrix(0.12345679012345678,0,0,0.12345679012345678,100.98765432098764,0)" xlink:href="#r"/><use transform="matrix(0.12345679012345678,0,0,0.12345679012345678,125.679012345679,0)" xlink:href="#x"/><use transform="matrix(0.12345679012345678,0,0,0.12345679012345678,152.71604938271602,0)" xlink:href="#y"/><use transform="matrix(0.12345679012345678,0,0,0.12345679012345678,167.4074074074074,0)" xlink:href="#z"/><use transform="matrix(0.12345679012345678,0,0,0.12345679012345678,179.75308641975306,0)" xlink:href="#s"/><use transform="matrix(0.12345679012345678,0,0,0.12345679012345678,204.44444444444443,0)" xlink:href="#t"/></g><path fill="#333" d="M182-130c37 4 62 22 62 59C244 23 116-4 24 0v-248c84 5 203-23 205 63 0 31-19 50-47 55zM76-148c40-3 101 13 101-30 0-44-60-28-101-31v61zm0 110c48-3 116 14 116-37 0-48-69-32-116-35v72" id="D"/><path fill="#333" d="M195-6C206 82 75 100 31 46c-4-6-6-13-8-21l49-6c3 16 16 24 34 25 40 0 42-37 40-79-11 22-30 35-61 35-53 0-70-43-70-97 0-56 18-96 73-97 30 0 46 14 59 34l2-30h47zm-90-29c32 0 41-27 41-63 0-35-9-62-40-62-32 0-39 29-40 63 0 36 9 62 39 62" id="E"/><g id="e"><use transform="matrix(0.12345679012345678,0,0,0.12345679012345678,0,0)" xlink:href="#D"/><use transform="matrix(0.12345679012345678,0,0,0.12345679012345678,31.975308641975307,0)" xlink:href="#z"/><use transform="matrix(0.12345679012345678,0,0,0.12345679012345678,44.32098765432099,0)" xlink:href="#x"/><use transform="matrix(0.12345679012345678,0,0,0.12345679012345678,71.35802469135803,0)" xlink:href="#w"/><use transform="matrix(0.12345679012345678,0,0,0.12345679012345678,98.39506172839506,0)" xlink:href="#z"/><use transform="matrix(0.12345679012345678,0,0,0.12345679012345678,110.74074074074075,0)" xlink:href="#x"/><use transform="matrix(0.12345679012345678,0,0,0.12345679012345678,137.77777777777777,0)" xlink:href="#E"/></g><path fill="#333" d="M176-78C186 10 51 31 16-35c-5-9-9-19-11-32l52-8c4 21 12 37 35 38 23 0 32-16 32-40v-130H75v-41h101v170" id="F"/><path fill="#333" d="M110-194c64 0 96 36 96 99 0 64-35 99-97 99-61 0-95-36-95-99 0-62 34-99 96-99zm-1 164c35 0 45-28 45-65 0-40-10-65-43-65-34 0-45 26-45 65 0 36 10 65 43 65" id="G"/><path fill="#333" d="M135-194c52 0 70 43 70 98 0 56-19 99-73 100-30 1-46-15-58-35L72 0H24l1-261h50v104c11-23 29-37 60-37zM114-30c31 0 40-27 40-66 0-37-7-63-39-63s-41 28-41 65c0 36 8 64 40 64" id="H"/><g id="f"><use transform="matrix(0.12345679012345678,0,0,0.12345679012345678,0,0)" xlink:href="#F"/><use transform="matrix(0.12345679012345678,0,0,0.12345679012345678,24.691358024691358,0)" xlink:href="#G"/><use transform="matrix(0.12345679012345678,0,0,0.12345679012345678,51.72839506172839,0)" xlink:href="#H"/></g><path fill="#333" d="M199 0l-22-63H83L61 0H9l90-248h61L250 0h-51zm-33-102l-36-108c-10 38-24 72-36 108h72" id="I"/><path fill="#333" d="M135-194c53 0 70 44 70 98 0 56-19 98-73 100-31 1-45-17-59-34 3 33 2 69 2 105H25l-1-265h48c2 10 0 23 3 31 11-24 29-35 60-35zM114-30c33 0 39-31 40-66 0-38-9-64-40-64-56 0-55 130 0 130" id="J"/><path fill="#333" d="M190-63c-7 42-38 67-86 67-59 0-84-38-90-98-12-110 154-137 174-36l-49 2c-2-19-15-32-35-32-30 0-35 28-38 64-6 74 65 87 74 30" id="K"/><g id="g"><use transform="matrix(0.12345679012345678,0,0,0.12345679012345678,0,0)" xlink:href="#I"/><use transform="matrix(0.12345679012345678,0,0,0.12345679012345678,31.975308641975307,0)" xlink:href="#J"/><use transform="matrix(0.12345679012345678,0,0,0.12345679012345678,59.01234567901234,0)" xlink:href="#J"/><use transform="matrix(0.12345679012345678,0,0,0.12345679012345678,86.04938271604938,0)" xlink:href="#t"/><use transform="matrix(0.12345679012345678,0,0,0.12345679012345678,98.39506172839506,0)" xlink:href="#z"/><use transform="matrix(0.12345679012345678,0,0,0.12345679012345678,110.74074074074075,0)" xlink:href="#K"/><use transform="matrix(0.12345679012345678,0,0,0.12345679012345678,135.4320987654321,0)" xlink:href="#s"/><use transform="matrix(0.12345679012345678,0,0,0.12345679012345678,160.12345679012347,0)" xlink:href="#y"/><use transform="matrix(0.12345679012345678,0,0,0.12345679012345678,174.81481481481484,0)" xlink:href="#z"/><use transform="matrix(0.12345679012345678,0,0,0.12345679012345678,187.1604938271605,0)" xlink:href="#G"/><use transform="matrix(0.12345679012345678,0,0,0.12345679012345678,214.19753086419755,0)" xlink:href="#x"/></g><path fill="#333" d="M67-125c0 54 23 88 75 88 28 0 53-7 68-21v-34h-60v-39h108v91C232-14 192 4 140 4 58 4 20-42 15-125 8-236 126-280 215-234c19 10 29 26 37 47l-47 15c-11-23-29-39-63-39-53 1-75 33-75 86" id="L"/><path fill="#333" d="M85 4C-2 5 27-109 22-190h50c7 57-23 150 33 157 60-5 35-97 40-157h50l1 190h-47c-2-12 1-28-3-38-12 25-28 42-61 42" id="M"/><g id="h"><use transform="matrix(0.12345679012345678,0,0,0.12345679012345678,0,0)" xlink:href="#L"/><use transform="matrix(0.12345679012345678,0,0,0.12345679012345678,34.5679012345679,0)" xlink:href="#C"/><use transform="matrix(0.12345679012345678,0,0,0.12345679012345678,51.85185185185185,0)" xlink:href="#G"/><use transform="matrix(0.12345679012345678,0,0,0.12345679012345678,78.88888888888889,0)" xlink:href="#M"/><use transform="matrix(0.12345679012345678,0,0,0.12345679012345678,105.92592592592592,0)" xlink:href="#J"/></g><path fill="#fff" d="M136-208V0H84v-208H4v-40h212v40h-80" id="N"/><path fill="#fff" d="M185-48c-13 30-37 53-82 52C43 2 14-33 14-96s30-98 90-98c62 0 83 45 84 108H66c0 31 8 55 39 56 18 0 30-7 34-22zm-45-69c5-46-57-63-70-21-2 6-4 13-4 21h74" id="O"/><path fill="#fff" d="M135-194c87-1 58 113 63 194h-50c-7-57 23-157-34-157-59 0-34 97-39 157H25l-1-190h47c2 12-1 28 3 38 12-26 28-41 61-42" id="P"/><path fill="#fff" d="M133-34C117-15 103 5 69 4 32 3 11-16 11-54c-1-60 55-63 116-61 1-26-3-47-28-47-18 1-26 9-28 27l-52-2c7-38 36-58 82-57s74 22 75 68l1 82c-1 14 12 18 25 15v27c-30 8-71 5-69-32zm-48 3c29 0 43-24 42-57-32 0-66-3-65 30 0 17 8 27 23 27" id="Q"/><path fill="#fff" d="M115-3C79 11 28 4 28-45v-112H4v-33h27l15-45h31v45h36v33H77v99c-1 23 16 31 38 25v30" id="R"/><path fill="#fff" d="M14 0l8-38h34L48 0H14" id="S"/><g id="i"><use transform="matrix(0.12345679012345678,0,0,0.12345679012345678,0,0)" xlink:href="#N"/><use transform="matrix(0.12345679012345678,0,0,0.12345679012345678,23.703703703703702,0)" xlink:href="#O"/><use transform="matrix(0.12345679012345678,0,0,0.12345679012345678,48.39506172839506,0)" xlink:href="#P"/><use transform="matrix(0.12345679012345678,0,0,0.12345679012345678,75.4320987654321,0)" xlink:href="#Q"/><use transform="matrix(0.12345679012345678,0,0,0.12345679012345678,100.12345679012346,0)" xlink:href="#P"/><use transform="matrix(0.12345679012345678,0,0,0.12345679012345678,127.1604938271605,0)" xlink:href="#R"/><use transform="matrix(0.12345679012345678,0,0,0.12345679012345678,141.85185185185185,0)" xlink:href="#S"/></g><path fill="#333" d="M24 0v-248h195v40H76v63h132v40H76v65h150V0H24" id="T"/><path fill="#333" d="M128 0H69L1-190h53L99-40l48-150h52" id="U"/><g id="j"><use transform="matrix(0.12345679012345678,0,0,0.12345679012345678,0,0)" xlink:href="#T"/><use transform="matrix(0.12345679012345678,0,0,0.12345679012345678,29.629629629629626,0)" xlink:href="#U"/><use transform="matrix(0.12345679012345678,0,0,0.12345679012345678,54.32098765432099,0)" xlink:href="#r"/><use transform="matrix(0.12345679012345678,0,0,0.12345679012345678,79.01234567901234,0)" xlink:href="#x"/><use transform="matrix(0.12345679012345678,0,0,0.12345679012345678,106.04938271604938,0)" xlink:href="#y"/></g><path fill="#333" d="M24-248c93 1 206-16 204 79-1 75-69 88-152 82V0H24v-248zm52 121c47 0 100 7 100-41 0-47-54-39-100-39v80" id="V"/><g id="k"><use transform="matrix(0.12345679012345678,0,0,0.12345679012345678,0,0)" xlink:href="#V"/><use transform="matrix(0.12345679012345678,0,0,0.12345679012345678,29.629629629629626,0)" xlink:href="#G"/><use transform="matrix(0.12345679012345678,0,0,0.12345679012345678,56.66666666666666,0)" xlink:href="#t"/><use transform="matrix(0.12345679012345678,0,0,0.12345679012345678,69.01234567901234,0)" xlink:href="#z"/><use transform="matrix(0.12345679012345678,0,0,0.12345679012345678,81.35802469135803,0)" xlink:href="#K"/><use transform="matrix(0.12345679012345678,0,0,0.12345679012345678,106.04938271604938,0)" xlink:href="#A"/></g><path fill="#333" d="M114-157C55-157 80-60 75 0H25v-261h50l-1 109c12-26 28-41 61-42 86-1 58 113 63 194h-50c-7-57 23-157-34-157" id="W"/><g id="l"><use transform="matrix(0.12345679012345678,0,0,0.12345679012345678,0,0)" xlink:href="#I"/><use transform="matrix(0.12345679012345678,0,0,0.12345679012345678,31.975308641975307,0)" xlink:href="#M"/><use transform="matrix(0.12345679012345678,0,0,0.12345679012345678,59.01234567901234,0)" xlink:href="#y"/><use transform="matrix(0.12345679012345678,0,0,0.12345679012345678,73.7037037037037,0)" xlink:href="#W"/><use transform="matrix(0.12345679012345678,0,0,0.12345679012345678,100.74074074074073,0)" xlink:href="#r"/><use transform="matrix(0.12345679012345678,0,0,0.12345679012345678,125.43209876543209,0)" xlink:href="#x"/><use transform="matrix(0.12345679012345678,0,0,0.12345679012345678,152.4691358024691,0)" xlink:href="#y"/><use transform="matrix(0.12345679012345678,0,0,0.12345679012345678,167.16049382716048,0)" xlink:href="#z"/><use transform="matrix(0.12345679012345678,0,0,0.12345679012345678,179.50617283950615,0)" xlink:href="#K"/><use transform="matrix(0.12345679012345678,0,0,0.12345679012345678,204.19753086419752,0)" xlink:href="#s"/><use transform="matrix(0.12345679012345678,0,0,0.12345679012345678,228.88888888888889,0)" xlink:href="#y"/><use transform="matrix(0.12345679012345678,0,0,0.12345679012345678,243.58024691358025,0)" xlink:href="#G"/><use transform="matrix(0.12345679012345678,0,0,0.12345679012345678,270.61728395061726,0)" xlink:href="#C"/></g><path fill="#333" d="M121-226c-27-7-43 5-38 36h38v33H83V0H34v-157H6v-33h28c-9-59 32-81 87-68v32" id="X"/><g id="m"><use transform="matrix(0.12345679012345678,0,0,0.12345679012345678,0,0)" xlink:href="#B"/><use transform="matrix(0.12345679012345678,0,0,0.12345679012345678,31.975308641975307,0)" xlink:href="#G"/><use transform="matrix(0.12345679012345678,0,0,0.12345679012345678,59.01234567901234,0)" xlink:href="#x"/><use transform="matrix(0.12345679012345678,0,0,0.12345679012345678,86.04938271604938,0)" xlink:href="#X"/><use transform="matrix(0.12345679012345678,0,0,0.12345679012345678,100.74074074074073,0)" xlink:href="#z"/><use transform="matrix(0.12345679012345678,0,0,0.12345679012345678,113.08641975308642,0)" xlink:href="#E"/></g><path fill="#333" d="M136-208V0H84v-208H4v-40h212v40h-80" id="Y"/><g id="n"><use transform="matrix(0.12345679012345678,0,0,0.12345679012345678,0,0)" xlink:href="#Y"/><use transform="matrix(0.12345679012345678,0,0,0.12345679012345678,27.037037037037035,0)" xlink:href="#W"/><use transform="matrix(0.12345679012345678,0,0,0.12345679012345678,54.07407407407407,0)" xlink:href="#r"/><use transform="matrix(0.12345679012345678,0,0,0.12345679012345678,78.76543209876543,0)" xlink:href="#u"/><use transform="matrix(0.12345679012345678,0,0,0.12345679012345678,118.2716049382716,0)" xlink:href="#r"/></g><path fill="#333" d="M137-138c1-29-70-34-71-4 15 46 118 7 119 86 1 83-164 76-172 9l43-7c4 19 20 25 44 25 33 8 57-30 24-41C81-84 22-81 20-136c-2-80 154-74 161-7" id="Z"/><g id="o"><use transform="matrix(0.12345679012345678,0,0,0.12345679012345678,0,0)" xlink:href="#q"/><use transform="matrix(0.12345679012345678,0,0,0.12345679012345678,31.975308641975307,0)" xlink:href="#r"/><use transform="matrix(0.12345679012345678,0,0,0.12345679012345678,56.666666666666664,0)" xlink:href="#Z"/><use transform="matrix(0.12345679012345678,0,0,0.12345679012345678,81.35802469135803,0)" xlink:href="#G"/><use transform="matrix(0.12345679012345678,0,0,0.12345679012345678,108.39506172839506,0)" xlink:href="#M"/><use transform="matrix(0.12345679012345678,0,0,0.12345679012345678,135.4320987654321,0)" xlink:href="#C"/><use transform="matrix(0.12345679012345678,0,0,0.12345679012345678,152.71604938271605,0)" xlink:href="#K"/><use transform="matrix(0.12345679012345678,0,0,0.12345679012345678,177.40740740740742,0)" xlink:href="#r"/></g><path fill="#333" d="M169-182c-1-43-94-46-97-3 18 66 151 10 154 114 3 95-165 93-204 36-6-8-10-19-12-30l50-8c3 46 112 56 116 5-17-69-150-10-154-114-4-87 153-88 188-35 5 8 8 18 10 28" id="aa"/><g id="p"><use transform="matrix(0.12345679012345678,0,0,0.12345679012345678,0,0)" xlink:href="#aa"/><use transform="matrix(0.12345679012345678,0,0,0.12345679012345678,29.629629629629626,0)" xlink:href="#r"/><use transform="matrix(0.12345679012345678,0,0,0.12345679012345678,54.32098765432099,0)" xlink:href="#C"/><use transform="matrix(0.12345679012345678,0,0,0.12345679012345678,71.60493827160494,0)" xlink:href="#U"/><use transform="matrix(0.12345679012345678,0,0,0.12345679012345678,96.29629629629629,0)" xlink:href="#r"/><use transform="matrix(0.12345679012345678,0,0,0.12345679012345678,120.98765432098764,0)" xlink:href="#C"/></g></defs></g></svg>