<svg width="1em" height="1em" viewBox="0 0 27 32" fill="none" xmlns="http://www.w3.org/2000/svg">
  <path d="M21.743 16.988c-.036-4.046 3.305-5.989 3.456-6.083-1.88-2.751-4.806-3.128-5.85-3.172-2.488-.252-4.858 1.465-6.12 1.465-1.261 0-3.212-1.43-5.275-1.389-2.717.04-5.218 1.578-6.616 4.008-2.82 4.891-.72 12.14 2.025 16.11 1.344 1.94 2.944 4.127 5.048 4.046 2.027-.08 2.793-1.31 5.24-1.31 2.446 0 3.135 1.31 5.277 1.272 2.179-.043 3.561-1.983 4.895-3.93 1.54-2.253 2.176-4.433 2.213-4.548-.049-.02-4.248-1.63-4.293-6.469ZM17.719 5.106c1.116-1.352 1.87-3.232 1.662-5.106-1.608.065-3.554 1.072-4.709 2.424-1.034 1.195-1.94 3.11-1.695 4.946 1.794.139 3.625-.913 4.742-2.264Z" fill="#0D0D0D"></path>
</svg>
