<svg width="100" height="21" viewBox="0 0 100 21" fill="none" xmlns="http://www.w3.org/2000/svg">
<g clip-path="url(#clip0_301_348)">
<path d="M66.4769 0.00830078H83.8952V3.22326H76.9856V20.1367H73.5305V3.22326H66.4769V0.00830078Z" fill="black"/>
<path d="M37.8304 0.00830078V3.22326H23.8685V8.39514H35.0967V11.6101H23.8685V16.9218H37.8304V20.1367H20.4137V3.22326H20.4122V0.00830078H37.8304Z" fill="black"/>
<path d="M46.5279 0.0168457H42.0066L58.201 20.1453H62.7355L54.6373 10.088L62.7226 0.0322024L58.201 0.0391897L52.3736 7.27663L46.5279 0.0168457Z" fill="black"/>
<path d="M51.1675 14.3945L48.9033 11.5793L41.9937 20.1605H46.5279L51.1675 14.3945Z" fill="black"/>
<path fill-rule="evenodd" clip-rule="evenodd" d="M20.5348 20.1368L4.31855 0H0V20.1284H3.45485V4.30244L16.1946 20.1368H20.5348Z" fill="black"/>
<path d="M84.6719 20.0139C84.4188 20.0139 84.2036 19.9262 84.0234 19.7509C83.8432 19.5756 83.7541 19.3634 83.7564 19.112C83.7541 18.8674 83.8432 18.6575 84.0234 18.4822C84.2036 18.3069 84.4188 18.2192 84.6719 18.2192C84.9153 18.2192 85.1282 18.3069 85.3084 18.4822C85.4912 18.6575 85.5823 18.8674 85.5848 19.112C85.5823 19.278 85.5402 19.4303 85.4559 19.5663C85.3693 19.7048 85.2594 19.8132 85.1211 19.8916C84.9853 19.9724 84.8356 20.0139 84.6719 20.0139Z" fill="black"/>
<path d="M90.5685 11.5344H92.0994V17.4327C92.0972 17.9748 91.9799 18.4385 91.7507 18.8283C91.519 19.2181 91.1982 19.5157 90.7862 19.7256C90.3766 19.9332 89.8967 20.0393 89.3512 20.0393C88.8525 20.0393 88.4055 19.9493 88.0076 19.774C87.6096 19.5987 87.2936 19.3358 87.0619 18.9898C86.8276 18.6437 86.7129 18.2124 86.7129 17.6957H88.2464C88.2487 17.9218 88.3002 18.1178 88.3984 18.2816C88.4967 18.4454 88.6324 18.5699 88.8058 18.6576C88.9812 18.7452 89.1827 18.7891 89.4096 18.7891C89.6555 18.7891 89.8662 18.7383 90.037 18.6345C90.2078 18.533 90.339 18.3808 90.4304 18.1778C90.5192 17.9771 90.5662 17.728 90.5685 17.4327V11.5344Z" fill="black"/>
<path d="M98.3988 13.8411C98.3615 13.4836 98.1975 13.2045 97.912 13.0061C97.6239 12.8054 97.2518 12.7062 96.7952 12.7062C96.4747 12.7062 96.1985 12.7547 95.9691 12.8493C95.7397 12.9461 95.5617 13.0753 95.4399 13.2391C95.3183 13.4029 95.2574 13.5897 95.2526 13.7996C95.2526 13.9749 95.2947 14.1272 95.3767 14.2541C95.4587 14.3832 95.5686 14.4916 95.7115 14.5793C95.8518 14.6693 96.0087 14.7431 96.1798 14.803C96.3528 14.863 96.5262 14.9138 96.6993 14.9553L97.4975 15.1514C97.8183 15.2252 98.1298 15.3244 98.427 15.4512C98.7242 15.5758 98.9935 15.735 99.2298 15.9264C99.4663 16.1179 99.6536 16.3485 99.7917 16.6184C99.9297 16.8883 100 17.2043 100 17.5688C100 18.0601 99.8737 18.4915 99.6183 18.8652C99.3633 19.2365 98.9957 19.5272 98.5135 19.7371C98.0336 19.9447 97.4531 20.0508 96.7696 20.0508C96.1094 20.0508 95.5336 19.9494 95.049 19.7464C94.5622 19.5457 94.1828 19.2504 93.9089 18.8629C93.6351 18.4753 93.4876 18.0025 93.4666 17.4465H94.9836C95.0046 17.7372 95.0983 17.9794 95.2574 18.1755C95.4188 18.3692 95.6295 18.5123 95.8871 18.6091C96.147 18.7037 96.4371 18.7521 96.7579 18.7521C97.0927 18.7521 97.3876 18.7014 97.6427 18.6022C97.8955 18.503 98.0945 18.3646 98.2374 18.1847C98.3825 18.0071 98.4551 17.7972 98.4574 17.5573C98.4551 17.3381 98.3894 17.1559 98.263 17.0129C98.1343 16.8699 97.9564 16.7499 97.7292 16.653C97.5001 16.5562 97.233 16.4685 96.9287 16.3924L95.9597 16.1479C95.2597 15.9702 94.7049 15.7004 94.2998 15.3382C93.8927 14.9761 93.6912 14.4963 93.6912 13.8942C93.6912 13.4006 93.827 12.9669 94.1011 12.5955C94.3724 12.2242 94.7447 11.9358 95.2153 11.7305C95.6881 11.5229 96.2219 11.4214 96.8163 11.4214C97.4204 11.4214 97.9493 11.5229 98.4059 11.7305C98.8622 11.9358 99.2206 12.2218 99.4803 12.5863C99.7402 12.9508 99.8759 13.3683 99.8831 13.8411H98.3988Z" fill="black"/>
</g>
<defs>
<clipPath id="clip0_301_348">
<rect width="100" height="20.3046" fill="white"/>
</clipPath>
</defs>
</svg>
